<svg width="256" height="85" viewBox="0 0 256 85" fill="none" xmlns="http://www.w3.org/2000/svg">
<g style="mix-blend-mode:exclusion">
<rect x="14" y="14" width="238" height="67" rx="8" fill="white"/>
<g filter="url(#filter0_dd_43_4106)">
<mask id="path-2-inside-1_43_4106" fill="white">
<path d="M9 17C9 12.5817 12.5817 9 17 9H239C243.418 9 247 12.5817 247 17V68C247 72.4183 243.418 76 239 76H17C12.5817 76 9 72.4183 9 68V17Z"/>
</mask>
<path d="M9 17C9 12.5817 12.5817 9 17 9H239C243.418 9 247 12.5817 247 17V68C247 72.4183 243.418 76 239 76H17C12.5817 76 9 72.4183 9 68V17Z" fill="#101010"/>
<path d="M8 17C8 12.0294 12.0294 8 17 8H238C242.971 8 247 12.0294 247 17C247 13.134 243.418 10 239 10H17C13.134 10 10 13.134 10 17H8ZM247 76H9H247ZM17 76C12.0294 76 8 71.9706 8 67V17C8 12.0294 12.0294 8 17 8V10C13.134 10 10 13.134 10 17V68C10 72.4183 13.134 76 17 76ZM247 9V76V9Z" fill="white" mask="url(#path-2-inside-1_43_4106)"/>
<path d="M26.381 56.5V52.279L23 46.42H24.19L26.899 51.103L29.594 46.42H30.784L27.417 52.279V56.5H26.381ZM33.7952 56.71C33.0439 56.71 32.4022 56.5397 31.8702 56.199C31.3382 55.8583 30.9299 55.387 30.6452 54.785C30.3605 54.183 30.2182 53.4923 30.2182 52.713C30.2182 51.9197 30.3629 51.2243 30.6522 50.627C30.9415 50.0297 31.3522 49.5653 31.8842 49.234C32.4209 48.898 33.0579 48.73 33.7952 48.73C34.5512 48.73 35.1952 48.9003 35.7272 49.241C36.2639 49.577 36.6722 50.046 36.9522 50.648C37.2369 51.2453 37.3792 51.9337 37.3792 52.713C37.3792 53.5063 37.2369 54.204 36.9522 54.806C36.6675 55.4033 36.2569 55.87 35.7202 56.206C35.1835 56.542 34.5419 56.71 33.7952 56.71ZM33.7952 55.723C34.6352 55.723 35.2605 55.4453 35.6712 54.89C36.0819 54.33 36.2872 53.6043 36.2872 52.713C36.2872 51.7983 36.0795 51.0703 35.6642 50.529C35.2535 49.9877 34.6305 49.717 33.7952 49.717C33.2305 49.717 32.7639 49.8453 32.3952 50.102C32.0312 50.354 31.7582 50.7063 31.5762 51.159C31.3989 51.607 31.3102 52.125 31.3102 52.713C31.3102 53.623 31.5202 54.3533 31.9402 54.904C32.3602 55.45 32.9785 55.723 33.7952 55.723ZM41.8144 56.689C41.3617 56.689 40.965 56.619 40.6244 56.479C40.2884 56.339 40.0014 56.15 39.7634 55.912C39.53 55.674 39.341 55.4033 39.1964 55.1C39.0517 54.792 38.9467 54.4677 38.8814 54.127C38.816 53.7817 38.7834 53.4387 38.7834 53.098V48.94H39.8194V52.797C39.8194 53.2123 39.859 53.5973 39.9384 53.952C40.0177 54.3067 40.1437 54.617 40.3164 54.883C40.4937 55.1443 40.72 55.3473 40.9954 55.492C41.2754 55.6367 41.6137 55.709 42.0104 55.709C42.3744 55.709 42.694 55.646 42.9694 55.52C43.2494 55.394 43.4827 55.2143 43.6694 54.981C43.8607 54.743 44.0054 54.456 44.1034 54.12C44.2014 53.7793 44.2504 53.3967 44.2504 52.972L44.9784 53.133C44.9784 53.9077 44.843 54.5587 44.5724 55.086C44.3017 55.6133 43.9284 56.0123 43.4524 56.283C42.9764 56.5537 42.4304 56.689 41.8144 56.689ZM44.3554 56.5V54.638H44.2504V48.94H45.2794V56.5H44.3554ZM55.4986 56.5V52.643C55.4986 52.223 55.4589 51.838 55.3796 51.488C55.3003 51.1333 55.1719 50.8253 54.9946 50.564C54.8219 50.298 54.5956 50.0927 54.3156 49.948C54.0403 49.8033 53.7043 49.731 53.3076 49.731C52.9436 49.731 52.6216 49.794 52.3416 49.92C52.0663 50.046 51.8329 50.228 51.6416 50.466C51.4549 50.6993 51.3126 50.984 51.2146 51.32C51.1166 51.656 51.0676 52.0387 51.0676 52.468L50.3396 52.307C50.3396 51.5323 50.4749 50.8813 50.7456 50.354C51.0163 49.8267 51.3896 49.4277 51.8656 49.157C52.3416 48.8863 52.8876 48.751 53.5036 48.751C53.9563 48.751 54.3506 48.821 54.6866 48.961C55.0273 49.101 55.3143 49.29 55.5476 49.528C55.7856 49.766 55.9769 50.039 56.1216 50.347C56.2663 50.6503 56.3713 50.9747 56.4366 51.32C56.5019 51.6607 56.5346 52.0013 56.5346 52.342V56.5H55.4986ZM50.0316 56.5V46.42H50.9626V52.111H51.0676V56.5H50.0316ZM60.5141 56.71C59.9448 56.71 59.4664 56.6073 59.0791 56.402C58.6964 56.1967 58.4094 55.9237 58.2181 55.583C58.0268 55.2423 57.9311 54.8713 57.9311 54.47C57.9311 54.0593 58.0128 53.7093 58.1761 53.42C58.3441 53.126 58.5704 52.8857 58.8551 52.699C59.1444 52.5123 59.4781 52.37 59.8561 52.272C60.2388 52.1787 60.6611 52.097 61.1231 52.027C61.5898 51.9523 62.0448 51.8893 62.4881 51.838C62.9361 51.782 63.3281 51.7283 63.6641 51.677L63.3001 51.901C63.3141 51.1543 63.1694 50.6013 62.8661 50.242C62.5628 49.8827 62.0354 49.703 61.2841 49.703C60.7661 49.703 60.3274 49.8197 59.9681 50.053C59.6134 50.2863 59.3638 50.655 59.2191 51.159L58.2181 50.865C58.3908 50.1883 58.7384 49.6633 59.2611 49.29C59.7838 48.9167 60.4628 48.73 61.2981 48.73C61.9888 48.73 62.5744 48.8607 63.0551 49.122C63.5404 49.3787 63.8834 49.752 64.0841 50.242C64.1774 50.4613 64.2381 50.7063 64.2661 50.977C64.2941 51.2477 64.3081 51.523 64.3081 51.803V56.5H63.3911V54.603L63.6571 54.715C63.4004 55.3637 63.0014 55.8583 62.4601 56.199C61.9188 56.5397 61.2701 56.71 60.5141 56.71ZM60.6331 55.821C61.1138 55.821 61.5338 55.7347 61.8931 55.562C62.2524 55.3893 62.5418 55.1537 62.7611 54.855C62.9804 54.5517 63.1228 54.211 63.1881 53.833C63.2441 53.5903 63.2744 53.3243 63.2791 53.035C63.2838 52.741 63.2861 52.5217 63.2861 52.377L63.6781 52.58C63.3281 52.6267 62.9478 52.6733 62.5371 52.72C62.1311 52.7667 61.7298 52.8203 61.3331 52.881C60.9411 52.9417 60.5864 53.014 60.2691 53.098C60.0544 53.1587 59.8468 53.245 59.6461 53.357C59.4454 53.4643 59.2798 53.609 59.1491 53.791C59.0231 53.973 58.9601 54.1993 58.9601 54.47C58.9601 54.6893 59.0138 54.9017 59.1211 55.107C59.2331 55.3123 59.4104 55.4827 59.6531 55.618C59.9004 55.7533 60.2271 55.821 60.6331 55.821ZM67.901 56.5L65.157 48.94H66.2L68.433 55.156L70.652 48.94H71.709L68.965 56.5H67.901ZM75.8919 56.71C75.1546 56.71 74.5152 56.5467 73.9739 56.22C73.4372 55.8933 73.0196 55.4337 72.7209 54.841C72.4222 54.2483 72.2729 53.553 72.2729 52.755C72.2729 51.929 72.4199 51.215 72.7139 50.613C73.0079 50.011 73.4209 49.5467 73.9529 49.22C74.4896 48.8933 75.1219 48.73 75.8499 48.73C76.5966 48.73 77.2336 48.9027 77.7609 49.248C78.2882 49.5887 78.6872 50.0787 78.9579 50.718C79.2286 51.3573 79.3522 52.1203 79.3289 53.007H78.2789V52.643C78.2602 51.663 78.0479 50.9233 77.6419 50.424C77.2406 49.9247 76.6526 49.675 75.8779 49.675C75.0659 49.675 74.4429 49.9387 74.0089 50.466C73.5796 50.9933 73.3649 51.7447 73.3649 52.72C73.3649 53.672 73.5796 54.4117 74.0089 54.939C74.4429 55.4617 75.0566 55.723 75.8499 55.723C76.3912 55.723 76.8626 55.5993 77.2639 55.352C77.6699 55.1 77.9896 54.7383 78.2229 54.267L79.1819 54.638C78.8832 55.296 78.4422 55.807 77.8589 56.171C77.2802 56.5303 76.6246 56.71 75.8919 56.71ZM73.0009 53.007V52.146H78.7759V53.007H73.0009ZM85.8481 56.71C85.2787 56.71 84.8004 56.6073 84.4131 56.402C84.0304 56.1967 83.7434 55.9237 83.5521 55.583C83.3607 55.2423 83.2651 54.8713 83.2651 54.47C83.2651 54.0593 83.3467 53.7093 83.5101 53.42C83.6781 53.126 83.9044 52.8857 84.1891 52.699C84.4784 52.5123 84.8121 52.37 85.1901 52.272C85.5727 52.1787 85.9951 52.097 86.4571 52.027C86.9237 51.9523 87.3787 51.8893 87.8221 51.838C88.2701 51.782 88.6621 51.7283 88.9981 51.677L88.6341 51.901C88.6481 51.1543 88.5034 50.6013 88.2001 50.242C87.8967 49.8827 87.3694 49.703 86.6181 49.703C86.1001 49.703 85.6614 49.8197 85.3021 50.053C84.9474 50.2863 84.6977 50.655 84.5531 51.159L83.5521 50.865C83.7247 50.1883 84.0724 49.6633 84.5951 49.29C85.1177 48.9167 85.7967 48.73 86.6321 48.73C87.3227 48.73 87.9084 48.8607 88.3891 49.122C88.8744 49.3787 89.2174 49.752 89.4181 50.242C89.5114 50.4613 89.5721 50.7063 89.6001 50.977C89.6281 51.2477 89.6421 51.523 89.6421 51.803V56.5H88.7251V54.603L88.9911 54.715C88.7344 55.3637 88.3354 55.8583 87.7941 56.199C87.2527 56.5397 86.6041 56.71 85.8481 56.71ZM85.9671 55.821C86.4477 55.821 86.8677 55.7347 87.2271 55.562C87.5864 55.3893 87.8757 55.1537 88.0951 54.855C88.3144 54.5517 88.4567 54.211 88.5221 53.833C88.5781 53.5903 88.6084 53.3243 88.6131 53.035C88.6177 52.741 88.6201 52.5217 88.6201 52.377L89.0121 52.58C88.6621 52.6267 88.2817 52.6733 87.8711 52.72C87.4651 52.7667 87.0637 52.8203 86.6671 52.881C86.2751 52.9417 85.9204 53.014 85.6031 53.098C85.3884 53.1587 85.1807 53.245 84.9801 53.357C84.7794 53.4643 84.6137 53.609 84.4831 53.791C84.3571 53.973 84.2941 54.1993 84.2941 54.47C84.2941 54.6893 84.3477 54.9017 84.4551 55.107C84.5671 55.3123 84.7444 55.4827 84.9871 55.618C85.2344 55.7533 85.5611 55.821 85.9671 55.821ZM96.9244 56.5V52.643C96.9244 52.223 96.8847 51.838 96.8054 51.488C96.726 51.1333 96.5977 50.8253 96.4204 50.564C96.2477 50.298 96.0214 50.0927 95.7414 49.948C95.466 49.8033 95.13 49.731 94.7334 49.731C94.3694 49.731 94.0474 49.794 93.7674 49.92C93.492 50.046 93.2587 50.228 93.0674 50.466C92.8807 50.6993 92.7384 50.984 92.6404 51.32C92.5424 51.656 92.4934 52.0387 92.4934 52.468L91.7654 52.307C91.7654 51.5323 91.9007 50.8813 92.1714 50.354C92.442 49.8267 92.8154 49.4277 93.2914 49.157C93.7674 48.8863 94.3134 48.751 94.9294 48.751C95.382 48.751 95.7764 48.821 96.1124 48.961C96.453 49.101 96.74 49.29 96.9734 49.528C97.2114 49.766 97.4027 50.039 97.5474 50.347C97.692 50.6503 97.797 50.9747 97.8624 51.32C97.9277 51.6607 97.9604 52.0013 97.9604 52.342V56.5H96.9244ZM91.4574 56.5V48.94H92.3884V50.802H92.4934V56.5H91.4574ZM102.72 47.505V46.35H103.749V47.505H102.72ZM102.72 56.5V48.94H103.749V56.5H102.72ZM108.78 56.71C108.076 56.71 107.474 56.535 106.974 56.185C106.475 55.8303 106.092 55.352 105.826 54.75C105.56 54.148 105.427 53.469 105.427 52.713C105.427 51.9617 105.558 51.285 105.819 50.683C106.085 50.081 106.466 49.605 106.96 49.255C107.455 48.905 108.048 48.73 108.738 48.73C109.448 48.73 110.045 48.9027 110.53 49.248C111.016 49.5933 111.382 50.067 111.629 50.669C111.881 51.2663 112.007 51.9477 112.007 52.713C112.007 53.4643 111.884 54.1433 111.636 54.75C111.389 55.352 111.025 55.8303 110.544 56.185C110.064 56.535 109.476 56.71 108.78 56.71ZM108.885 55.751C109.422 55.751 109.865 55.6203 110.215 55.359C110.565 55.0977 110.827 54.7383 110.999 54.281C111.172 53.819 111.258 53.2963 111.258 52.713C111.258 52.1203 111.172 51.5977 110.999 51.145C110.827 50.6877 110.565 50.3307 110.215 50.074C109.87 49.8173 109.434 49.689 108.906 49.689C108.365 49.689 107.917 49.822 107.562 50.088C107.208 50.354 106.944 50.7157 106.771 51.173C106.603 51.6303 106.519 52.1437 106.519 52.713C106.519 53.287 106.606 53.805 106.778 54.267C106.956 54.7243 107.219 55.086 107.569 55.352C107.919 55.618 108.358 55.751 108.885 55.751ZM111.258 56.5V50.809H111.146V46.42H112.182V56.5H111.258ZM117.345 56.71C116.608 56.71 115.968 56.5467 115.427 56.22C114.89 55.8933 114.473 55.4337 114.174 54.841C113.875 54.2483 113.726 53.553 113.726 52.755C113.726 51.929 113.873 51.215 114.167 50.613C114.461 50.011 114.874 49.5467 115.406 49.22C115.943 48.8933 116.575 48.73 117.303 48.73C118.05 48.73 118.687 48.9027 119.214 49.248C119.741 49.5887 120.14 50.0787 120.411 50.718C120.682 51.3573 120.805 52.1203 120.782 53.007H119.732V52.643C119.713 51.663 119.501 50.9233 119.095 50.424C118.694 49.9247 118.106 49.675 117.331 49.675C116.519 49.675 115.896 49.9387 115.462 50.466C115.033 50.9933 114.818 51.7447 114.818 52.72C114.818 53.672 115.033 54.4117 115.462 54.939C115.896 55.4617 116.51 55.723 117.303 55.723C117.844 55.723 118.316 55.5993 118.717 55.352C119.123 55.1 119.443 54.7383 119.676 54.267L120.635 54.638C120.336 55.296 119.895 55.807 119.312 56.171C118.733 56.5303 118.078 56.71 117.345 56.71ZM114.454 53.007V52.146H120.229V53.007H114.454ZM124.362 56.71C123.792 56.71 123.314 56.6073 122.927 56.402C122.544 56.1967 122.257 55.9237 122.066 55.583C121.874 55.2423 121.779 54.8713 121.779 54.47C121.779 54.0593 121.86 53.7093 122.024 53.42C122.192 53.126 122.418 52.8857 122.703 52.699C122.992 52.5123 123.326 52.37 123.704 52.272C124.086 52.1787 124.509 52.097 124.971 52.027C125.437 51.9523 125.892 51.8893 126.336 51.838C126.784 51.782 127.176 51.7283 127.512 51.677L127.148 51.901C127.162 51.1543 127.017 50.6013 126.714 50.242C126.41 49.8827 125.883 49.703 125.132 49.703C124.614 49.703 124.175 49.8197 123.816 50.053C123.461 50.2863 123.211 50.655 123.067 51.159L122.066 50.865C122.238 50.1883 122.586 49.6633 123.109 49.29C123.631 48.9167 124.31 48.73 125.146 48.73C125.836 48.73 126.422 48.8607 126.903 49.122C127.388 49.3787 127.731 49.752 127.932 50.242C128.025 50.4613 128.086 50.7063 128.114 50.977C128.142 51.2477 128.156 51.523 128.156 51.803V56.5H127.239V54.603L127.505 54.715C127.248 55.3637 126.849 55.8583 126.308 56.199C125.766 56.5397 125.118 56.71 124.362 56.71ZM124.481 55.821C124.961 55.821 125.381 55.7347 125.741 55.562C126.1 55.3893 126.389 55.1537 126.609 54.855C126.828 54.5517 126.97 54.211 127.036 53.833C127.092 53.5903 127.122 53.3243 127.127 53.035C127.131 52.741 127.134 52.5217 127.134 52.377L127.526 52.58C127.176 52.6267 126.795 52.6733 126.385 52.72C125.979 52.7667 125.577 52.8203 125.181 52.881C124.789 52.9417 124.434 53.014 124.117 53.098C123.902 53.1587 123.694 53.245 123.494 53.357C123.293 53.4643 123.127 53.609 122.997 53.791C122.871 53.973 122.808 54.1993 122.808 54.47C122.808 54.6893 122.861 54.9017 122.969 55.107C123.081 55.3123 123.258 55.4827 123.501 55.618C123.748 55.7533 124.075 55.821 124.481 55.821ZM131.952 53.749C131.952 53.385 131.968 53.0653 132.001 52.79C132.038 52.51 132.132 52.23 132.281 51.95C132.421 51.684 132.594 51.4647 132.799 51.292C133.004 51.1147 133.219 50.949 133.443 50.795C133.667 50.6363 133.879 50.4497 134.08 50.235C134.262 50.025 134.383 49.8127 134.444 49.598C134.505 49.3833 134.535 49.157 134.535 48.919C134.535 48.681 134.505 48.4687 134.444 48.282C134.388 48.0953 134.299 47.9343 134.178 47.799C133.991 47.5703 133.763 47.414 133.492 47.33C133.221 47.246 132.939 47.204 132.645 47.204C132.356 47.204 132.085 47.246 131.833 47.33C131.586 47.4093 131.38 47.533 131.217 47.701C131.058 47.8503 130.942 48.03 130.867 48.24C130.797 48.45 130.762 48.6717 130.762 48.905H129.698C129.717 48.5363 129.796 48.177 129.936 47.827C130.081 47.4723 130.291 47.176 130.566 46.938C130.841 46.686 131.161 46.504 131.525 46.392C131.894 46.2753 132.265 46.217 132.638 46.217C133.095 46.217 133.529 46.287 133.94 46.427C134.351 46.5623 134.696 46.791 134.976 47.113C135.2 47.351 135.363 47.624 135.466 47.932C135.573 48.2353 135.627 48.5597 135.627 48.905C135.627 49.2923 135.555 49.6563 135.41 49.997C135.265 50.3377 135.062 50.641 134.801 50.907C134.642 51.0797 134.463 51.2407 134.262 51.39C134.061 51.5347 133.868 51.6863 133.681 51.845C133.499 51.999 133.359 52.167 133.261 52.349C133.14 52.573 133.072 52.7853 133.058 52.986C133.049 53.1867 133.044 53.441 133.044 53.749H131.952ZM131.959 56.5V55.128H133.044V56.5H131.959Z" fill="white"/>
<path d="M148.944 48.996C148.736 47.844 147.984 46.452 145.872 46.452C143.408 46.452 142.432 48.516 142.432 50.772C142.432 53.044 143.408 55.108 145.872 55.108C148 55.108 148.816 53.716 148.944 52.324H150.848C150.592 54.9 148.832 56.74 145.92 56.74C142.624 56.74 140.544 54.228 140.544 50.772C140.544 47.332 142.624 44.82 145.92 44.82C148.816 44.82 150.576 46.66 150.848 48.996H148.944ZM155.008 56.74C152.448 56.74 150.896 54.964 150.896 52.42C150.896 49.876 152.448 48.1 155.008 48.1C157.568 48.1 159.12 49.876 159.12 52.42C159.12 54.964 157.568 56.74 155.008 56.74ZM155.008 55.364C156.608 55.364 157.44 54.1 157.44 52.42C157.44 50.724 156.608 49.476 155.008 49.476C153.408 49.476 152.576 50.724 152.576 52.42C152.576 54.1 153.408 55.364 155.008 55.364ZM163.881 48.1C165.401 48.1 166.601 48.98 166.601 50.852V56.5H164.905V51.332C164.905 50.228 164.441 49.524 163.289 49.524C161.993 49.524 161.161 50.308 161.161 51.524V56.5H159.481V48.324H161.161V49.38H161.193C161.625 48.74 162.473 48.1 163.881 48.1ZM171.085 49.7H169.549V54.132C169.549 55.06 169.997 55.172 171.085 55.108V56.484C170.749 56.564 170.381 56.612 169.933 56.612C168.589 56.612 167.853 56.004 167.853 54.276V49.7H166.669V48.324H167.853V45.748H169.549V48.324H171.085V49.7ZM176.497 50.468C176.497 49.876 176.145 49.428 175.025 49.428C173.681 49.428 173.185 49.844 173.105 50.9H171.473C171.553 49.332 172.561 48.1 175.025 48.1C176.833 48.1 178.177 48.788 178.177 50.964V54.852C178.177 55.428 178.305 55.732 178.961 55.668V56.468C178.577 56.612 178.305 56.644 177.985 56.644C177.089 56.644 176.673 56.324 176.513 55.524H176.481C175.969 56.244 175.041 56.74 173.777 56.74C172.113 56.74 171.089 55.78 171.089 54.404C171.089 52.612 172.417 52.052 174.465 51.652C175.729 51.412 176.497 51.252 176.497 50.468ZM174.145 55.412C175.537 55.412 176.497 54.724 176.497 53.396V52.164C176.225 52.356 175.569 52.548 174.785 52.708C173.393 53.012 172.785 53.412 172.785 54.244C172.785 54.996 173.233 55.412 174.145 55.412ZM184.776 51.316C184.712 50.484 184.184 49.476 182.744 49.476C181.096 49.476 180.392 50.884 180.392 52.42C180.392 53.956 181.08 55.364 182.744 55.364C184.184 55.364 184.712 54.372 184.776 53.46H186.456C186.328 55.348 184.872 56.74 182.744 56.74C180.296 56.74 178.712 54.98 178.712 52.42C178.712 49.86 180.296 48.1 182.728 48.1C184.856 48.1 186.248 49.46 186.456 51.316H184.776ZM190.67 49.7H189.134V54.132C189.134 55.06 189.582 55.172 190.67 55.108V56.484C190.334 56.564 189.966 56.612 189.518 56.612C188.174 56.612 187.438 56.004 187.438 54.276V49.7H186.254V48.324H187.438V45.748H189.134V48.324H190.67V49.7ZM202.361 48.1C204.009 48.1 204.857 49.092 204.857 50.852V56.5H203.161V51.332C203.161 50.228 202.937 49.524 201.785 49.524C200.649 49.524 199.945 50.308 199.945 51.524V56.5H198.249V51.332C198.249 50.228 198.025 49.524 196.857 49.524C195.737 49.524 195.017 50.308 195.017 51.524V56.5H193.337V48.324H195.017V49.38H195.049C195.481 48.74 196.249 48.1 197.481 48.1C198.633 48.1 199.321 48.628 199.657 49.508H199.689C200.297 48.724 201.097 48.1 202.361 48.1ZM209.232 55.364C210.624 55.364 211.184 54.5 211.328 54.004H213.008C212.592 55.556 211.376 56.74 209.28 56.74C206.736 56.74 205.184 54.98 205.184 52.42C205.184 49.764 206.736 48.1 209.2 48.1C211.84 48.1 213.136 49.94 213.136 52.852H206.864C206.864 54.228 207.744 55.364 209.232 55.364ZM209.2 49.428C207.84 49.428 206.864 50.34 206.864 51.604H211.456C211.456 50.34 210.56 49.428 209.2 49.428Z" fill="white"/>
<path d="M228.505 27.4955L232.001 24.0002L235.496 27.4955M235.496 20.5049L232 24.0002L228.505 20.5049" stroke="white" stroke-width="1.5" stroke-linecap="round" stroke-linejoin="round"/>
</g>
</g>
<g style="mix-blend-mode:soft-light">
<rect x="14" y="14" width="238" height="67" rx="8" fill="#141414"/>
<g filter="url(#filter1_dd_43_4106)">
<mask id="path-8-inside-2_43_4106" fill="white">
<path d="M9 17C9 12.5817 12.5817 9 17 9H239C243.418 9 247 12.5817 247 17V68C247 72.4183 243.418 76 239 76H17C12.5817 76 9 72.4183 9 68V17Z"/>
</mask>
<path d="M9 17C9 12.5817 12.5817 9 17 9H239C243.418 9 247 12.5817 247 17V68C247 72.4183 243.418 76 239 76H17C12.5817 76 9 72.4183 9 68V17Z" fill="white"/>
<path d="M8 17C8 12.0294 12.0294 8 17 8H238C242.971 8 247 12.0294 247 17C247 13.134 243.418 10 239 10H17C13.134 10 10 13.134 10 17H8ZM247 76H9H247ZM17 76C12.0294 76 8 71.9706 8 67V17C8 12.0294 12.0294 8 17 8V10C13.134 10 10 13.134 10 17V68C10 72.4183 13.134 76 17 76ZM247 9V76V9Z" fill="#141414" mask="url(#path-8-inside-2_43_4106)"/>
<path d="M26.381 56.5V52.279L23 46.42H24.19L26.899 51.103L29.594 46.42H30.784L27.417 52.279V56.5H26.381ZM33.7952 56.71C33.0439 56.71 32.4022 56.5397 31.8702 56.199C31.3382 55.8583 30.9299 55.387 30.6452 54.785C30.3605 54.183 30.2182 53.4923 30.2182 52.713C30.2182 51.9197 30.3629 51.2243 30.6522 50.627C30.9415 50.0297 31.3522 49.5653 31.8842 49.234C32.4209 48.898 33.0579 48.73 33.7952 48.73C34.5512 48.73 35.1952 48.9003 35.7272 49.241C36.2639 49.577 36.6722 50.046 36.9522 50.648C37.2369 51.2453 37.3792 51.9337 37.3792 52.713C37.3792 53.5063 37.2369 54.204 36.9522 54.806C36.6675 55.4033 36.2569 55.87 35.7202 56.206C35.1835 56.542 34.5419 56.71 33.7952 56.71ZM33.7952 55.723C34.6352 55.723 35.2605 55.4453 35.6712 54.89C36.0819 54.33 36.2872 53.6043 36.2872 52.713C36.2872 51.7983 36.0795 51.0703 35.6642 50.529C35.2535 49.9877 34.6305 49.717 33.7952 49.717C33.2305 49.717 32.7639 49.8453 32.3952 50.102C32.0312 50.354 31.7582 50.7063 31.5762 51.159C31.3989 51.607 31.3102 52.125 31.3102 52.713C31.3102 53.623 31.5202 54.3533 31.9402 54.904C32.3602 55.45 32.9785 55.723 33.7952 55.723ZM41.8144 56.689C41.3617 56.689 40.965 56.619 40.6244 56.479C40.2884 56.339 40.0014 56.15 39.7634 55.912C39.53 55.674 39.341 55.4033 39.1964 55.1C39.0517 54.792 38.9467 54.4677 38.8814 54.127C38.816 53.7817 38.7834 53.4387 38.7834 53.098V48.94H39.8194V52.797C39.8194 53.2123 39.859 53.5973 39.9384 53.952C40.0177 54.3067 40.1437 54.617 40.3164 54.883C40.4937 55.1443 40.72 55.3473 40.9954 55.492C41.2754 55.6367 41.6137 55.709 42.0104 55.709C42.3744 55.709 42.694 55.646 42.9694 55.52C43.2494 55.394 43.4827 55.2143 43.6694 54.981C43.8607 54.743 44.0054 54.456 44.1034 54.12C44.2014 53.7793 44.2504 53.3967 44.2504 52.972L44.9784 53.133C44.9784 53.9077 44.843 54.5587 44.5724 55.086C44.3017 55.6133 43.9284 56.0123 43.4524 56.283C42.9764 56.5537 42.4304 56.689 41.8144 56.689ZM44.3554 56.5V54.638H44.2504V48.94H45.2794V56.5H44.3554ZM55.4986 56.5V52.643C55.4986 52.223 55.4589 51.838 55.3796 51.488C55.3003 51.1333 55.1719 50.8253 54.9946 50.564C54.8219 50.298 54.5956 50.0927 54.3156 49.948C54.0403 49.8033 53.7043 49.731 53.3076 49.731C52.9436 49.731 52.6216 49.794 52.3416 49.92C52.0663 50.046 51.8329 50.228 51.6416 50.466C51.4549 50.6993 51.3126 50.984 51.2146 51.32C51.1166 51.656 51.0676 52.0387 51.0676 52.468L50.3396 52.307C50.3396 51.5323 50.4749 50.8813 50.7456 50.354C51.0163 49.8267 51.3896 49.4277 51.8656 49.157C52.3416 48.8863 52.8876 48.751 53.5036 48.751C53.9563 48.751 54.3506 48.821 54.6866 48.961C55.0273 49.101 55.3143 49.29 55.5476 49.528C55.7856 49.766 55.9769 50.039 56.1216 50.347C56.2663 50.6503 56.3713 50.9747 56.4366 51.32C56.5019 51.6607 56.5346 52.0013 56.5346 52.342V56.5H55.4986ZM50.0316 56.5V46.42H50.9626V52.111H51.0676V56.5H50.0316ZM60.5141 56.71C59.9448 56.71 59.4664 56.6073 59.0791 56.402C58.6964 56.1967 58.4094 55.9237 58.2181 55.583C58.0268 55.2423 57.9311 54.8713 57.9311 54.47C57.9311 54.0593 58.0128 53.7093 58.1761 53.42C58.3441 53.126 58.5704 52.8857 58.8551 52.699C59.1444 52.5123 59.4781 52.37 59.8561 52.272C60.2388 52.1787 60.6611 52.097 61.1231 52.027C61.5898 51.9523 62.0448 51.8893 62.4881 51.838C62.9361 51.782 63.3281 51.7283 63.6641 51.677L63.3001 51.901C63.3141 51.1543 63.1694 50.6013 62.8661 50.242C62.5628 49.8827 62.0354 49.703 61.2841 49.703C60.7661 49.703 60.3274 49.8197 59.9681 50.053C59.6134 50.2863 59.3638 50.655 59.2191 51.159L58.2181 50.865C58.3908 50.1883 58.7384 49.6633 59.2611 49.29C59.7838 48.9167 60.4628 48.73 61.2981 48.73C61.9888 48.73 62.5744 48.8607 63.0551 49.122C63.5404 49.3787 63.8834 49.752 64.0841 50.242C64.1774 50.4613 64.2381 50.7063 64.2661 50.977C64.2941 51.2477 64.3081 51.523 64.3081 51.803V56.5H63.3911V54.603L63.6571 54.715C63.4004 55.3637 63.0014 55.8583 62.4601 56.199C61.9188 56.5397 61.2701 56.71 60.5141 56.71ZM60.6331 55.821C61.1138 55.821 61.5338 55.7347 61.8931 55.562C62.2524 55.3893 62.5418 55.1537 62.7611 54.855C62.9804 54.5517 63.1228 54.211 63.1881 53.833C63.2441 53.5903 63.2744 53.3243 63.2791 53.035C63.2838 52.741 63.2861 52.5217 63.2861 52.377L63.6781 52.58C63.3281 52.6267 62.9478 52.6733 62.5371 52.72C62.1311 52.7667 61.7298 52.8203 61.3331 52.881C60.9411 52.9417 60.5864 53.014 60.2691 53.098C60.0544 53.1587 59.8468 53.245 59.6461 53.357C59.4454 53.4643 59.2798 53.609 59.1491 53.791C59.0231 53.973 58.9601 54.1993 58.9601 54.47C58.9601 54.6893 59.0138 54.9017 59.1211 55.107C59.2331 55.3123 59.4104 55.4827 59.6531 55.618C59.9004 55.7533 60.2271 55.821 60.6331 55.821ZM67.901 56.5L65.157 48.94H66.2L68.433 55.156L70.652 48.94H71.709L68.965 56.5H67.901ZM75.8919 56.71C75.1546 56.71 74.5152 56.5467 73.9739 56.22C73.4372 55.8933 73.0196 55.4337 72.7209 54.841C72.4222 54.2483 72.2729 53.553 72.2729 52.755C72.2729 51.929 72.4199 51.215 72.7139 50.613C73.0079 50.011 73.4209 49.5467 73.9529 49.22C74.4896 48.8933 75.1219 48.73 75.8499 48.73C76.5966 48.73 77.2336 48.9027 77.7609 49.248C78.2882 49.5887 78.6872 50.0787 78.9579 50.718C79.2286 51.3573 79.3522 52.1203 79.3289 53.007H78.2789V52.643C78.2602 51.663 78.0479 50.9233 77.6419 50.424C77.2406 49.9247 76.6526 49.675 75.8779 49.675C75.0659 49.675 74.4429 49.9387 74.0089 50.466C73.5796 50.9933 73.3649 51.7447 73.3649 52.72C73.3649 53.672 73.5796 54.4117 74.0089 54.939C74.4429 55.4617 75.0566 55.723 75.8499 55.723C76.3912 55.723 76.8626 55.5993 77.2639 55.352C77.6699 55.1 77.9896 54.7383 78.2229 54.267L79.1819 54.638C78.8832 55.296 78.4422 55.807 77.8589 56.171C77.2802 56.5303 76.6246 56.71 75.8919 56.71ZM73.0009 53.007V52.146H78.7759V53.007H73.0009ZM85.8481 56.71C85.2787 56.71 84.8004 56.6073 84.4131 56.402C84.0304 56.1967 83.7434 55.9237 83.5521 55.583C83.3607 55.2423 83.2651 54.8713 83.2651 54.47C83.2651 54.0593 83.3467 53.7093 83.5101 53.42C83.6781 53.126 83.9044 52.8857 84.1891 52.699C84.4784 52.5123 84.8121 52.37 85.1901 52.272C85.5727 52.1787 85.9951 52.097 86.4571 52.027C86.9237 51.9523 87.3787 51.8893 87.8221 51.838C88.2701 51.782 88.6621 51.7283 88.9981 51.677L88.6341 51.901C88.6481 51.1543 88.5034 50.6013 88.2001 50.242C87.8967 49.8827 87.3694 49.703 86.6181 49.703C86.1001 49.703 85.6614 49.8197 85.3021 50.053C84.9474 50.2863 84.6977 50.655 84.5531 51.159L83.5521 50.865C83.7247 50.1883 84.0724 49.6633 84.5951 49.29C85.1177 48.9167 85.7967 48.73 86.6321 48.73C87.3227 48.73 87.9084 48.8607 88.3891 49.122C88.8744 49.3787 89.2174 49.752 89.4181 50.242C89.5114 50.4613 89.5721 50.7063 89.6001 50.977C89.6281 51.2477 89.6421 51.523 89.6421 51.803V56.5H88.7251V54.603L88.9911 54.715C88.7344 55.3637 88.3354 55.8583 87.7941 56.199C87.2527 56.5397 86.6041 56.71 85.8481 56.71ZM85.9671 55.821C86.4477 55.821 86.8677 55.7347 87.2271 55.562C87.5864 55.3893 87.8757 55.1537 88.0951 54.855C88.3144 54.5517 88.4567 54.211 88.5221 53.833C88.5781 53.5903 88.6084 53.3243 88.6131 53.035C88.6177 52.741 88.6201 52.5217 88.6201 52.377L89.0121 52.58C88.6621 52.6267 88.2817 52.6733 87.8711 52.72C87.4651 52.7667 87.0637 52.8203 86.6671 52.881C86.2751 52.9417 85.9204 53.014 85.6031 53.098C85.3884 53.1587 85.1807 53.245 84.9801 53.357C84.7794 53.4643 84.6137 53.609 84.4831 53.791C84.3571 53.973 84.2941 54.1993 84.2941 54.47C84.2941 54.6893 84.3477 54.9017 84.4551 55.107C84.5671 55.3123 84.7444 55.4827 84.9871 55.618C85.2344 55.7533 85.5611 55.821 85.9671 55.821ZM96.9244 56.5V52.643C96.9244 52.223 96.8847 51.838 96.8054 51.488C96.726 51.1333 96.5977 50.8253 96.4204 50.564C96.2477 50.298 96.0214 50.0927 95.7414 49.948C95.466 49.8033 95.13 49.731 94.7334 49.731C94.3694 49.731 94.0474 49.794 93.7674 49.92C93.492 50.046 93.2587 50.228 93.0674 50.466C92.8807 50.6993 92.7384 50.984 92.6404 51.32C92.5424 51.656 92.4934 52.0387 92.4934 52.468L91.7654 52.307C91.7654 51.5323 91.9007 50.8813 92.1714 50.354C92.442 49.8267 92.8154 49.4277 93.2914 49.157C93.7674 48.8863 94.3134 48.751 94.9294 48.751C95.382 48.751 95.7764 48.821 96.1124 48.961C96.453 49.101 96.74 49.29 96.9734 49.528C97.2114 49.766 97.4027 50.039 97.5474 50.347C97.692 50.6503 97.797 50.9747 97.8624 51.32C97.9277 51.6607 97.9604 52.0013 97.9604 52.342V56.5H96.9244ZM91.4574 56.5V48.94H92.3884V50.802H92.4934V56.5H91.4574ZM102.72 47.505V46.35H103.749V47.505H102.72ZM102.72 56.5V48.94H103.749V56.5H102.72ZM108.78 56.71C108.076 56.71 107.474 56.535 106.974 56.185C106.475 55.8303 106.092 55.352 105.826 54.75C105.56 54.148 105.427 53.469 105.427 52.713C105.427 51.9617 105.558 51.285 105.819 50.683C106.085 50.081 106.466 49.605 106.96 49.255C107.455 48.905 108.048 48.73 108.738 48.73C109.448 48.73 110.045 48.9027 110.53 49.248C111.016 49.5933 111.382 50.067 111.629 50.669C111.881 51.2663 112.007 51.9477 112.007 52.713C112.007 53.4643 111.884 54.1433 111.636 54.75C111.389 55.352 111.025 55.8303 110.544 56.185C110.064 56.535 109.476 56.71 108.78 56.71ZM108.885 55.751C109.422 55.751 109.865 55.6203 110.215 55.359C110.565 55.0977 110.827 54.7383 110.999 54.281C111.172 53.819 111.258 53.2963 111.258 52.713C111.258 52.1203 111.172 51.5977 110.999 51.145C110.827 50.6877 110.565 50.3307 110.215 50.074C109.87 49.8173 109.434 49.689 108.906 49.689C108.365 49.689 107.917 49.822 107.562 50.088C107.208 50.354 106.944 50.7157 106.771 51.173C106.603 51.6303 106.519 52.1437 106.519 52.713C106.519 53.287 106.606 53.805 106.778 54.267C106.956 54.7243 107.219 55.086 107.569 55.352C107.919 55.618 108.358 55.751 108.885 55.751ZM111.258 56.5V50.809H111.146V46.42H112.182V56.5H111.258ZM117.345 56.71C116.608 56.71 115.968 56.5467 115.427 56.22C114.89 55.8933 114.473 55.4337 114.174 54.841C113.875 54.2483 113.726 53.553 113.726 52.755C113.726 51.929 113.873 51.215 114.167 50.613C114.461 50.011 114.874 49.5467 115.406 49.22C115.943 48.8933 116.575 48.73 117.303 48.73C118.05 48.73 118.687 48.9027 119.214 49.248C119.741 49.5887 120.14 50.0787 120.411 50.718C120.682 51.3573 120.805 52.1203 120.782 53.007H119.732V52.643C119.713 51.663 119.501 50.9233 119.095 50.424C118.694 49.9247 118.106 49.675 117.331 49.675C116.519 49.675 115.896 49.9387 115.462 50.466C115.033 50.9933 114.818 51.7447 114.818 52.72C114.818 53.672 115.033 54.4117 115.462 54.939C115.896 55.4617 116.51 55.723 117.303 55.723C117.844 55.723 118.316 55.5993 118.717 55.352C119.123 55.1 119.443 54.7383 119.676 54.267L120.635 54.638C120.336 55.296 119.895 55.807 119.312 56.171C118.733 56.5303 118.078 56.71 117.345 56.71ZM114.454 53.007V52.146H120.229V53.007H114.454ZM124.362 56.71C123.792 56.71 123.314 56.6073 122.927 56.402C122.544 56.1967 122.257 55.9237 122.066 55.583C121.874 55.2423 121.779 54.8713 121.779 54.47C121.779 54.0593 121.86 53.7093 122.024 53.42C122.192 53.126 122.418 52.8857 122.703 52.699C122.992 52.5123 123.326 52.37 123.704 52.272C124.086 52.1787 124.509 52.097 124.971 52.027C125.437 51.9523 125.892 51.8893 126.336 51.838C126.784 51.782 127.176 51.7283 127.512 51.677L127.148 51.901C127.162 51.1543 127.017 50.6013 126.714 50.242C126.41 49.8827 125.883 49.703 125.132 49.703C124.614 49.703 124.175 49.8197 123.816 50.053C123.461 50.2863 123.211 50.655 123.067 51.159L122.066 50.865C122.238 50.1883 122.586 49.6633 123.109 49.29C123.631 48.9167 124.31 48.73 125.146 48.73C125.836 48.73 126.422 48.8607 126.903 49.122C127.388 49.3787 127.731 49.752 127.932 50.242C128.025 50.4613 128.086 50.7063 128.114 50.977C128.142 51.2477 128.156 51.523 128.156 51.803V56.5H127.239V54.603L127.505 54.715C127.248 55.3637 126.849 55.8583 126.308 56.199C125.766 56.5397 125.118 56.71 124.362 56.71ZM124.481 55.821C124.961 55.821 125.381 55.7347 125.741 55.562C126.1 55.3893 126.389 55.1537 126.609 54.855C126.828 54.5517 126.97 54.211 127.036 53.833C127.092 53.5903 127.122 53.3243 127.127 53.035C127.131 52.741 127.134 52.5217 127.134 52.377L127.526 52.58C127.176 52.6267 126.795 52.6733 126.385 52.72C125.979 52.7667 125.577 52.8203 125.181 52.881C124.789 52.9417 124.434 53.014 124.117 53.098C123.902 53.1587 123.694 53.245 123.494 53.357C123.293 53.4643 123.127 53.609 122.997 53.791C122.871 53.973 122.808 54.1993 122.808 54.47C122.808 54.6893 122.861 54.9017 122.969 55.107C123.081 55.3123 123.258 55.4827 123.501 55.618C123.748 55.7533 124.075 55.821 124.481 55.821ZM131.952 53.749C131.952 53.385 131.968 53.0653 132.001 52.79C132.038 52.51 132.132 52.23 132.281 51.95C132.421 51.684 132.594 51.4647 132.799 51.292C133.004 51.1147 133.219 50.949 133.443 50.795C133.667 50.6363 133.879 50.4497 134.08 50.235C134.262 50.025 134.383 49.8127 134.444 49.598C134.505 49.3833 134.535 49.157 134.535 48.919C134.535 48.681 134.505 48.4687 134.444 48.282C134.388 48.0953 134.299 47.9343 134.178 47.799C133.991 47.5703 133.763 47.414 133.492 47.33C133.221 47.246 132.939 47.204 132.645 47.204C132.356 47.204 132.085 47.246 131.833 47.33C131.586 47.4093 131.38 47.533 131.217 47.701C131.058 47.8503 130.942 48.03 130.867 48.24C130.797 48.45 130.762 48.6717 130.762 48.905H129.698C129.717 48.5363 129.796 48.177 129.936 47.827C130.081 47.4723 130.291 47.176 130.566 46.938C130.841 46.686 131.161 46.504 131.525 46.392C131.894 46.2753 132.265 46.217 132.638 46.217C133.095 46.217 133.529 46.287 133.94 46.427C134.351 46.5623 134.696 46.791 134.976 47.113C135.2 47.351 135.363 47.624 135.466 47.932C135.573 48.2353 135.627 48.5597 135.627 48.905C135.627 49.2923 135.555 49.6563 135.41 49.997C135.265 50.3377 135.062 50.641 134.801 50.907C134.642 51.0797 134.463 51.2407 134.262 51.39C134.061 51.5347 133.868 51.6863 133.681 51.845C133.499 51.999 133.359 52.167 133.261 52.349C133.14 52.573 133.072 52.7853 133.058 52.986C133.049 53.1867 133.044 53.441 133.044 53.749H131.952ZM131.959 56.5V55.128H133.044V56.5H131.959Z" fill="#141414"/>
<path d="M148.944 48.996C148.736 47.844 147.984 46.452 145.872 46.452C143.408 46.452 142.432 48.516 142.432 50.772C142.432 53.044 143.408 55.108 145.872 55.108C148 55.108 148.816 53.716 148.944 52.324H150.848C150.592 54.9 148.832 56.74 145.92 56.74C142.624 56.74 140.544 54.228 140.544 50.772C140.544 47.332 142.624 44.82 145.92 44.82C148.816 44.82 150.576 46.66 150.848 48.996H148.944ZM155.008 56.74C152.448 56.74 150.896 54.964 150.896 52.42C150.896 49.876 152.448 48.1 155.008 48.1C157.568 48.1 159.12 49.876 159.12 52.42C159.12 54.964 157.568 56.74 155.008 56.74ZM155.008 55.364C156.608 55.364 157.44 54.1 157.44 52.42C157.44 50.724 156.608 49.476 155.008 49.476C153.408 49.476 152.576 50.724 152.576 52.42C152.576 54.1 153.408 55.364 155.008 55.364ZM163.881 48.1C165.401 48.1 166.601 48.98 166.601 50.852V56.5H164.905V51.332C164.905 50.228 164.441 49.524 163.289 49.524C161.993 49.524 161.161 50.308 161.161 51.524V56.5H159.481V48.324H161.161V49.38H161.193C161.625 48.74 162.473 48.1 163.881 48.1ZM171.085 49.7H169.549V54.132C169.549 55.06 169.997 55.172 171.085 55.108V56.484C170.749 56.564 170.381 56.612 169.933 56.612C168.589 56.612 167.853 56.004 167.853 54.276V49.7H166.669V48.324H167.853V45.748H169.549V48.324H171.085V49.7ZM176.497 50.468C176.497 49.876 176.145 49.428 175.025 49.428C173.681 49.428 173.185 49.844 173.105 50.9H171.473C171.553 49.332 172.561 48.1 175.025 48.1C176.833 48.1 178.177 48.788 178.177 50.964V54.852C178.177 55.428 178.305 55.732 178.961 55.668V56.468C178.577 56.612 178.305 56.644 177.985 56.644C177.089 56.644 176.673 56.324 176.513 55.524H176.481C175.969 56.244 175.041 56.74 173.777 56.74C172.113 56.74 171.089 55.78 171.089 54.404C171.089 52.612 172.417 52.052 174.465 51.652C175.729 51.412 176.497 51.252 176.497 50.468ZM174.145 55.412C175.537 55.412 176.497 54.724 176.497 53.396V52.164C176.225 52.356 175.569 52.548 174.785 52.708C173.393 53.012 172.785 53.412 172.785 54.244C172.785 54.996 173.233 55.412 174.145 55.412ZM184.776 51.316C184.712 50.484 184.184 49.476 182.744 49.476C181.096 49.476 180.392 50.884 180.392 52.42C180.392 53.956 181.08 55.364 182.744 55.364C184.184 55.364 184.712 54.372 184.776 53.46H186.456C186.328 55.348 184.872 56.74 182.744 56.74C180.296 56.74 178.712 54.98 178.712 52.42C178.712 49.86 180.296 48.1 182.728 48.1C184.856 48.1 186.248 49.46 186.456 51.316H184.776ZM190.67 49.7H189.134V54.132C189.134 55.06 189.582 55.172 190.67 55.108V56.484C190.334 56.564 189.966 56.612 189.518 56.612C188.174 56.612 187.438 56.004 187.438 54.276V49.7H186.254V48.324H187.438V45.748H189.134V48.324H190.67V49.7ZM202.361 48.1C204.009 48.1 204.857 49.092 204.857 50.852V56.5H203.161V51.332C203.161 50.228 202.937 49.524 201.785 49.524C200.649 49.524 199.945 50.308 199.945 51.524V56.5H198.249V51.332C198.249 50.228 198.025 49.524 196.857 49.524C195.737 49.524 195.017 50.308 195.017 51.524V56.5H193.337V48.324H195.017V49.38H195.049C195.481 48.74 196.249 48.1 197.481 48.1C198.633 48.1 199.321 48.628 199.657 49.508H199.689C200.297 48.724 201.097 48.1 202.361 48.1ZM209.232 55.364C210.624 55.364 211.184 54.5 211.328 54.004H213.008C212.592 55.556 211.376 56.74 209.28 56.74C206.736 56.74 205.184 54.98 205.184 52.42C205.184 49.764 206.736 48.1 209.2 48.1C211.84 48.1 213.136 49.94 213.136 52.852H206.864C206.864 54.228 207.744 55.364 209.232 55.364ZM209.2 49.428C207.84 49.428 206.864 50.34 206.864 51.604H211.456C211.456 50.34 210.56 49.428 209.2 49.428Z" fill="#141414"/>
<path d="M228.505 27.4955L232.001 24.0002L235.496 27.4955M235.496 20.5049L232 24.0002L228.505 20.5049" stroke="#141414" stroke-width="1.5" stroke-linecap="round" stroke-linejoin="round"/>
</g>
</g>
<defs>
<filter id="filter0_dd_43_4106" x="0" y="0" width="256" height="85" filterUnits="userSpaceOnUse" color-interpolation-filters="sRGB">
<feFlood flood-opacity="0" result="BackgroundImageFix"/>
<feColorMatrix in="SourceAlpha" type="matrix" values="0 0 0 0 0 0 0 0 0 0 0 0 0 0 0 0 0 0 127 0" result="hardAlpha"/>
<feOffset dx="1" dy="1"/>
<feGaussianBlur stdDeviation="4"/>
<feComposite in2="hardAlpha" operator="out"/>
<feColorMatrix type="matrix" values="0 0 0 0 0 0 0 0 0 0 0 0 0 0 0 0 0 0 0.15 0"/>
<feBlend mode="normal" in2="BackgroundImageFix" result="effect1_dropShadow_43_4106"/>
<feColorMatrix in="SourceAlpha" type="matrix" values="0 0 0 0 0 0 0 0 0 0 0 0 0 0 0 0 0 0 127 0" result="hardAlpha"/>
<feOffset dx="-1" dy="-1"/>
<feGaussianBlur stdDeviation="4"/>
<feComposite in2="hardAlpha" operator="out"/>
<feColorMatrix type="matrix" values="0 0 0 0 0 0 0 0 0 0 0 0 0 0 0 0 0 0 0.15 0"/>
<feBlend mode="normal" in2="effect1_dropShadow_43_4106" result="effect2_dropShadow_43_4106"/>
<feBlend mode="normal" in="SourceGraphic" in2="effect2_dropShadow_43_4106" result="shape"/>
</filter>
<filter id="filter1_dd_43_4106" x="0" y="0" width="256" height="85" filterUnits="userSpaceOnUse" color-interpolation-filters="sRGB">
<feFlood flood-opacity="0" result="BackgroundImageFix"/>
<feColorMatrix in="SourceAlpha" type="matrix" values="0 0 0 0 0 0 0 0 0 0 0 0 0 0 0 0 0 0 127 0" result="hardAlpha"/>
<feOffset dx="1" dy="1"/>
<feGaussianBlur stdDeviation="4"/>
<feComposite in2="hardAlpha" operator="out"/>
<feColorMatrix type="matrix" values="0 0 0 0 0 0 0 0 0 0 0 0 0 0 0 0 0 0 0.15 0"/>
<feBlend mode="normal" in2="BackgroundImageFix" result="effect1_dropShadow_43_4106"/>
<feColorMatrix in="SourceAlpha" type="matrix" values="0 0 0 0 0 0 0 0 0 0 0 0 0 0 0 0 0 0 127 0" result="hardAlpha"/>
<feOffset dx="-1" dy="-1"/>
<feGaussianBlur stdDeviation="4"/>
<feComposite in2="hardAlpha" operator="out"/>
<feColorMatrix type="matrix" values="0 0 0 0 0 0 0 0 0 0 0 0 0 0 0 0 0 0 0.15 0"/>
<feBlend mode="normal" in2="effect1_dropShadow_43_4106" result="effect2_dropShadow_43_4106"/>
<feBlend mode="normal" in="SourceGraphic" in2="effect2_dropShadow_43_4106" result="shape"/>
</filter>
</defs>
</svg>
