<svg width="490" height="135" viewBox="0 0 490 135" fill="none" xmlns="http://www.w3.org/2000/svg">
<path d="M19.9561 45.1311C19.9561 47.8045 20.6245 50.1809 21.9612 52.2602C23.3721 54.3395 25.0801 56.1589 27.0851 57.7183C29.0902 59.2778 31.8007 61.1714 35.2167 63.3993C38.9297 65.7756 41.9001 67.8549 44.128 69.6372C46.3558 71.4194 48.2494 73.6101 49.8089 76.2092C51.3684 78.7341 52.1481 81.6674 52.1481 85.0091C52.1481 88.8707 51.1085 92.3238 49.0292 95.3685C46.9499 98.3389 44.0537 100.678 40.3407 102.386C36.7019 104.02 32.6176 104.837 28.0877 104.837C24.8202 104.837 21.3299 104.391 17.6169 103.5C13.9781 102.535 11.5275 101.495 10.2651 100.381C9.8938 100.084 9.59676 99.8241 9.37398 99.6013C9.22546 99.3043 9.1512 98.8587 9.1512 98.2646L8.81703 80.5535V80.4421C8.81703 80.145 9.00268 79.9965 9.37398 79.9965C9.74528 79.9223 9.96807 80.0336 10.0423 80.3307C12.2701 84.8606 14.2009 88.5365 15.8347 91.3584C17.5426 94.1803 19.6591 96.668 22.1839 98.8216C24.7831 100.975 27.7164 102.052 30.9838 102.052C33.9542 102.052 36.4048 101.272 38.3356 99.7127C40.2664 98.079 41.2318 95.3313 41.2318 91.4698C41.2318 88.2023 40.4892 85.3433 39.004 82.8927C37.593 80.4421 35.8479 78.3628 33.7686 76.6548C31.6893 74.9468 28.8303 72.9046 25.1915 70.5283C21.627 68.2262 18.8422 66.2583 16.8372 64.6246C14.9064 62.9908 13.2355 61.0229 11.8246 58.7208C10.4136 56.4188 9.70815 53.7083 9.70815 50.5893C9.70815 46.6535 10.8221 43.3489 13.0499 40.6755C15.352 37.9279 18.2853 35.9228 21.8498 34.6604C25.4143 33.3237 29.1644 32.6554 33.1003 32.6554C35.6994 32.6554 38.3356 32.9153 41.009 33.4351C43.6824 33.8807 45.8359 34.4376 47.4697 35.106C48.138 35.403 48.5836 35.7372 48.8064 36.1085C49.0292 36.4055 49.1405 36.814 49.1405 37.3338V53.7083C49.1405 53.931 48.9549 54.1167 48.5836 54.2652C48.2123 54.3395 47.9895 54.2652 47.9152 54.0424L47.0241 51.926C45.1676 47.2476 42.9769 43.2746 40.4521 40.0072C38.0015 36.7397 34.5483 35.106 30.0927 35.106C27.1223 35.106 24.6717 35.96 22.7409 37.668C20.8844 39.376 19.9561 41.8637 19.9561 45.1311ZM44.6457 103.5C44.423 103.5 44.3116 103.277 44.3116 102.832C44.3116 102.386 44.423 102.163 44.6457 102.163C47.0221 102.163 48.7301 101.978 49.7697 101.606C50.8836 101.235 51.6262 100.53 51.9975 99.4899C52.3688 98.376 52.5545 96.7052 52.5545 94.4773V42.9033C52.5545 40.6755 52.3688 39.0418 51.9975 38.0021C51.6262 36.9625 50.8836 36.257 49.7697 35.8857C48.6558 35.4401 46.9478 35.2174 44.6457 35.2174C44.423 35.2174 44.3116 34.9946 44.3116 34.549C44.3116 34.1034 44.423 33.8807 44.6457 33.8807H91.8755C92.6181 33.8807 92.9894 34.2148 92.9894 34.8832L93.2122 49.6982C93.2122 49.8467 92.9894 49.9581 92.5438 50.0324C92.1725 50.1066 91.9498 50.0324 91.8755 49.8096C90.6873 45.5025 88.6823 42.3092 85.8604 40.2299C83.0385 38.1507 79.3255 37.111 74.7213 37.111H71.3796C69.1518 37.111 67.518 37.5937 66.4784 38.5591C65.4387 39.5245 64.9189 41.0097 64.9189 43.0147V94.0318C64.9189 96.1853 65.3273 97.7819 66.1442 98.8216C66.9611 99.8612 68.2606 100.381 70.0429 100.381H73.7188C79.5111 100.381 84.1524 99.1929 87.6426 96.8165C91.1329 94.4402 93.6949 90.7643 95.3286 85.7888C95.3286 85.6403 95.4771 85.5661 95.7742 85.5661C95.997 85.5661 96.1826 85.6403 96.3311 85.7888C96.5539 85.8631 96.6653 85.9374 96.6653 86.0116C95.9227 91.804 95.5514 97.0765 95.5514 101.829C95.5514 102.423 95.44 102.869 95.2172 103.166C94.9944 103.389 94.5489 103.5 93.8805 103.5H44.6457ZM87.6426 78.6598C87.6426 75.6151 86.4545 73.2388 84.0781 71.5308C81.7761 69.7485 78.4343 68.8574 74.053 68.8574H59.0152V65.7385H74.1643C78.4715 65.7385 81.7761 64.9959 84.0781 63.5107C86.3802 62.0254 87.5313 59.9461 87.5313 57.2728C87.5313 57.05 87.7169 56.9386 88.0882 56.9386C88.5338 56.9386 88.7566 57.05 88.7566 57.2728L88.6452 67.2979L88.7566 72.6447C88.9051 75.1696 88.9793 77.1746 88.9793 78.6598C88.9793 78.8083 88.7566 78.8826 88.311 78.8826C87.8654 78.8826 87.6426 78.8083 87.6426 78.6598ZM147.321 48.1387C147.321 44.1286 146.393 40.9726 144.536 38.6705C142.754 36.3684 140.229 35.2174 136.962 35.2174C136.813 35.2174 136.739 34.9946 136.739 34.549C136.739 34.1034 136.813 33.8807 136.962 33.8807L142.309 33.9921C145.131 34.1406 147.395 34.2148 149.103 34.2148C150.514 34.2148 152.557 34.1406 155.23 33.9921L160.354 33.8807C160.502 33.8807 160.577 34.1034 160.577 34.549C160.577 34.9946 160.502 35.2174 160.354 35.2174C157.458 35.2174 155.193 36.3684 153.559 38.6705C151.925 40.9726 151.108 44.1286 151.108 48.1387V79.1054C151.108 84.3036 149.957 88.8707 147.655 92.8065C145.353 96.7423 142.086 99.787 137.853 101.941C133.694 104.02 128.867 105.059 123.372 105.059C117.877 105.059 113.013 104.02 108.78 101.941C104.547 99.8612 101.205 96.8537 98.7548 92.9179C96.3784 88.9078 95.1902 84.2294 95.1902 78.8826V42.9033C95.1902 40.6755 94.9675 39.0418 94.5219 38.0021C94.1506 36.9625 93.408 36.257 92.2941 35.8857C91.2544 35.4401 89.5836 35.2174 87.2815 35.2174C87.0587 35.2174 86.9473 34.9946 86.9473 34.549C86.9473 34.1034 87.0587 33.8807 87.2815 33.8807L93.1852 33.9921C96.6012 34.1406 99.3117 34.2148 101.317 34.2148C103.545 34.2148 106.366 34.1406 109.782 33.9921L115.463 33.8807C115.686 33.8807 115.798 34.1034 115.798 34.549C115.798 34.9946 115.686 35.2174 115.463 35.2174C113.161 35.2174 111.453 35.4401 110.339 35.8857C109.3 36.3313 108.557 37.111 108.112 38.2249C107.74 39.2646 107.555 40.8983 107.555 43.1261V74.9839C107.555 83.8209 109.3 90.3559 112.79 94.5887C116.28 98.8216 121.219 100.938 127.605 100.938C133.769 100.938 138.596 99.0815 142.086 95.3685C145.576 91.5812 147.321 86.1973 147.321 79.2168V48.1387ZM158.363 36.4427L161.705 36.6654V89.3534C161.705 93.2892 162.521 96.4081 164.155 98.7102C165.789 101.012 168.054 102.163 170.95 102.163C171.099 102.163 171.173 102.386 171.173 102.832C171.173 103.277 171.099 103.5 170.95 103.5C168.871 103.5 167.274 103.463 166.16 103.389L160.145 103.277L153.239 103.389C151.976 103.463 150.157 103.5 147.781 103.5C147.558 103.5 147.447 103.277 147.447 102.832C147.447 102.386 147.558 102.163 147.781 102.163C151.048 102.163 153.61 101.012 155.467 98.7102C157.397 96.4081 158.363 93.2892 158.363 89.3534V36.4427ZM215.172 105.171C215.172 105.394 214.987 105.542 214.615 105.616C214.318 105.691 214.095 105.654 213.947 105.505L159.031 43.0147C156.432 40.0443 154.204 38.0021 152.348 36.8882C150.491 35.7743 148.598 35.2174 146.667 35.2174C146.518 35.2174 146.444 34.9946 146.444 34.549C146.444 34.1034 146.518 33.8807 146.667 33.8807L151.345 33.9921C152.311 34.0663 153.722 34.1034 155.578 34.1034L164.044 33.9921C165.083 33.9178 166.346 33.8807 167.831 33.8807C168.425 33.8807 168.871 34.0292 169.168 34.3262C169.465 34.6233 169.985 35.2545 170.727 36.2199C171.99 37.9279 172.881 39.0789 173.401 39.673L214.281 86.7914L215.172 105.171ZM215.172 105.171L211.942 101.829V48.1387C211.942 44.1286 211.125 40.9726 209.491 38.6705C207.858 36.3684 205.593 35.2174 202.696 35.2174C202.548 35.2174 202.474 34.9946 202.474 34.549C202.474 34.1034 202.548 33.8807 202.696 33.8807L207.486 33.9921C209.863 34.1406 211.868 34.2148 213.501 34.2148C214.987 34.2148 217.066 34.1406 219.739 33.9921L224.752 33.8807C224.9 33.8807 224.975 34.1034 224.975 34.549C224.975 34.9946 224.9 35.2174 224.752 35.2174C221.781 35.2174 219.442 36.4055 217.734 38.7819C216.026 41.0839 215.172 44.2029 215.172 48.1387V105.171ZM212.092 103.5C211.87 103.5 211.758 103.277 211.758 102.832C211.758 102.386 211.87 102.163 212.092 102.163C214.692 102.163 216.585 101.978 217.773 101.606C218.962 101.235 219.741 100.53 220.113 99.4899C220.558 98.376 220.781 96.7052 220.781 94.4773V42.9033C220.781 40.6755 220.595 39.0418 220.224 38.0021C219.853 36.9625 219.11 36.257 217.996 35.8857C216.882 35.4401 215.174 35.2174 212.872 35.2174C212.649 35.2174 212.538 34.9946 212.538 34.549C212.538 34.1034 212.649 33.8807 212.872 33.8807H260.102C260.845 33.8807 261.216 34.2148 261.216 34.8832L261.439 49.6982C261.439 49.8467 261.216 49.9581 260.77 50.0324C260.399 50.1066 260.176 50.0324 260.102 49.8096C258.914 45.5025 256.909 42.3092 254.087 40.2299C251.265 38.1507 247.552 37.111 242.948 37.111H239.606C237.378 37.111 235.744 37.5937 234.705 38.5591C233.665 39.5245 233.145 41.0097 233.145 43.0147V94.0318C233.145 96.3339 233.442 98.0418 234.036 99.1558C234.631 100.27 235.744 101.049 237.378 101.495C239.012 101.941 241.574 102.163 245.064 102.163C245.213 102.163 245.287 102.386 245.287 102.832C245.287 103.277 245.213 103.5 245.064 103.5C242.019 103.5 239.643 103.463 237.935 103.389L226.573 103.277L218.219 103.389C216.734 103.463 214.692 103.5 212.092 103.5ZM254.532 79.8851C254.532 76.9147 253.344 74.5755 250.968 72.8675C248.666 71.0852 245.361 70.1941 241.054 70.1941H227.242V67.0752H241.165C245.473 67.0752 248.74 66.3326 250.968 64.8473C253.27 63.2879 254.421 61.1714 254.421 58.4981C254.421 58.3495 254.644 58.2753 255.089 58.2753C255.535 58.2753 255.758 58.3495 255.758 58.4981L255.646 68.6346C255.646 71.011 255.683 72.7932 255.758 73.9814L255.869 79.8851C255.869 80.1079 255.646 80.2193 255.201 80.2193C254.755 80.2193 254.532 80.1079 254.532 79.8851ZM312.284 48.1387C312.284 44.1286 311.356 40.9726 309.499 38.6705C307.717 36.3684 305.192 35.2174 301.925 35.2174C301.776 35.2174 301.702 34.9946 301.702 34.549C301.702 34.1034 301.776 33.8807 301.925 33.8807L307.272 33.9921C310.094 34.1406 312.358 34.2148 314.066 34.2148C315.477 34.2148 317.52 34.1406 320.193 33.9921L325.317 33.8807C325.465 33.8807 325.54 34.1034 325.54 34.549C325.54 34.9946 325.465 35.2174 325.317 35.2174C322.421 35.2174 320.156 36.3684 318.522 38.6705C316.888 40.9726 316.072 44.1286 316.072 48.1387V79.1054C316.072 84.3036 314.92 88.8707 312.618 92.8065C310.316 96.7423 307.049 99.787 302.816 101.941C298.657 104.02 293.83 105.059 288.335 105.059C282.84 105.059 277.976 104.02 273.743 101.941C269.51 99.8612 266.168 96.8537 263.718 92.9179C261.341 88.9078 260.153 84.2294 260.153 78.8826V42.9033C260.153 40.6755 259.93 39.0418 259.485 38.0021C259.114 36.9625 258.371 36.257 257.257 35.8857C256.217 35.4401 254.547 35.2174 252.245 35.2174C252.022 35.2174 251.91 34.9946 251.91 34.549C251.91 34.1034 252.022 33.8807 252.245 33.8807L258.148 33.9921C261.564 34.1406 264.275 34.2148 266.28 34.2148C268.508 34.2148 271.329 34.1406 274.745 33.9921L280.426 33.8807C280.649 33.8807 280.761 34.1034 280.761 34.549C280.761 34.9946 280.649 35.2174 280.426 35.2174C278.124 35.2174 276.416 35.4401 275.302 35.8857C274.263 36.3313 273.52 37.111 273.075 38.2249C272.703 39.2646 272.518 40.8983 272.518 43.1261V74.9839C272.518 83.8209 274.263 90.3559 277.753 94.5887C281.243 98.8216 286.182 100.938 292.568 100.938C298.732 100.938 303.559 99.0815 307.049 95.3685C310.539 91.5812 312.284 86.1973 312.284 79.2168V48.1387ZM323.326 36.4427L326.668 36.6654V89.3534C326.668 93.2892 327.484 96.4081 329.118 98.7102C330.752 101.012 333.017 102.163 335.913 102.163C336.062 102.163 336.136 102.386 336.136 102.832C336.136 103.277 336.062 103.5 335.913 103.5C333.834 103.5 332.237 103.463 331.123 103.389L325.108 103.277L318.202 103.389C316.939 103.463 315.12 103.5 312.744 103.5C312.521 103.5 312.41 103.277 312.41 102.832C312.41 102.386 312.521 102.163 312.744 102.163C316.011 102.163 318.573 101.012 320.43 98.7102C322.36 96.4081 323.326 93.2892 323.326 89.3534V36.4427ZM380.135 105.171C380.135 105.394 379.95 105.542 379.578 105.616C379.281 105.691 379.058 105.654 378.91 105.505L323.994 43.0147C321.395 40.0443 319.167 38.0021 317.311 36.8882C315.454 35.7743 313.561 35.2174 311.63 35.2174C311.481 35.2174 311.407 34.9946 311.407 34.549C311.407 34.1034 311.481 33.8807 311.63 33.8807L316.308 33.9921C317.274 34.0663 318.685 34.1034 320.541 34.1034L329.007 33.9921C330.046 33.9178 331.309 33.8807 332.794 33.8807C333.388 33.8807 333.834 34.0292 334.131 34.3262C334.428 34.6233 334.948 35.2545 335.69 36.2199C336.953 37.9279 337.844 39.0789 338.364 39.673L379.244 86.7914L380.135 105.171ZM380.135 105.171L376.905 101.829V48.1387C376.905 44.1286 376.088 40.9726 374.454 38.6705C372.821 36.3684 370.556 35.2174 367.659 35.2174C367.511 35.2174 367.437 34.9946 367.437 34.549C367.437 34.1034 367.511 33.8807 367.659 33.8807L372.449 33.9921C374.826 34.1406 376.831 34.2148 378.464 34.2148C379.95 34.2148 382.029 34.1406 384.702 33.9921L389.715 33.8807C389.863 33.8807 389.938 34.1034 389.938 34.549C389.938 34.9946 389.863 35.2174 389.715 35.2174C386.744 35.2174 384.405 36.4055 382.697 38.7819C380.989 41.0839 380.135 44.2029 380.135 48.1387V105.171ZM387.415 36.4427L390.645 36.6654L389.42 89.3534C389.346 93.3634 390.125 96.5195 391.759 98.8216C393.467 101.049 395.843 102.163 398.888 102.163C399.111 102.163 399.222 102.386 399.222 102.832C399.222 103.277 399.111 103.5 398.888 103.5C396.883 103.5 395.324 103.463 394.21 103.389L388.083 103.277L381.065 103.389C379.877 103.463 378.281 103.5 376.276 103.5C376.053 103.5 375.942 103.277 375.942 102.832C375.942 102.386 376.053 102.163 376.276 102.163C379.32 102.163 381.734 101.012 383.516 98.7102C385.298 96.4081 386.227 93.2892 386.301 89.3534L387.415 36.4427ZM466.057 102.163C466.205 102.163 466.28 102.386 466.28 102.832C466.28 103.277 466.205 103.5 466.057 103.5C463.532 103.5 461.527 103.463 460.042 103.389L451.799 103.277L443.444 103.389C442.033 103.463 440.103 103.5 437.652 103.5C437.429 103.5 437.318 103.277 437.318 102.832C437.318 102.386 437.429 102.163 437.652 102.163C440.028 102.163 441.774 101.978 442.887 101.606C444.076 101.161 444.855 100.418 445.227 99.3785C445.598 98.3389 445.709 96.7052 445.561 94.4773L442.999 45.0198L448.68 36.1085L420.275 102.72C420.127 103.017 419.83 103.166 419.384 103.166C418.938 103.166 418.641 103.017 418.493 102.72L387.192 43.1261C385.707 40.3785 384.147 38.3734 382.514 37.111C380.954 35.8486 379.135 35.2174 377.055 35.2174C376.833 35.2174 376.721 34.9946 376.721 34.549C376.721 34.1034 376.833 33.8807 377.055 33.8807L382.291 33.9921C383.33 34.0663 384.667 34.1034 386.301 34.1034L392.205 33.9921C392.873 33.9178 393.727 33.8807 394.767 33.8807C395.732 33.8807 396.475 34.2148 396.994 34.8832C397.514 35.5515 398.48 37.1481 399.891 39.673L424.842 86.4572L419.273 96.4824L445.338 36.6654C445.784 35.6258 446.229 34.9203 446.675 34.549C447.195 34.1034 447.863 33.8807 448.68 33.8807C449.348 33.8807 450.091 33.9178 450.908 33.9921C451.799 34.0663 452.801 34.1034 453.915 34.1034L460.487 33.9921C461.527 33.9178 463.012 33.8807 464.943 33.8807C465.166 33.8807 465.277 34.1034 465.277 34.549C465.277 34.9946 465.166 35.2174 464.943 35.2174C461.453 35.2174 458.928 35.9228 457.368 37.3338C455.809 38.7447 455.103 40.9354 455.252 43.9058L457.925 94.4773C458.074 96.7794 458.334 98.4503 458.705 99.4899C459.151 100.53 459.893 101.235 460.933 101.606C462.047 101.978 463.755 102.163 466.057 102.163ZM476.24 94.4773C476.24 96.7794 476.426 98.4503 476.797 99.4899C477.169 100.53 477.874 101.235 478.914 101.606C480.028 101.978 481.773 102.163 484.149 102.163C484.372 102.163 484.483 102.386 484.483 102.832C484.483 103.277 484.372 103.5 484.149 103.5C481.698 103.5 479.768 103.463 478.357 103.389L469.891 103.277L461.648 103.389C460.163 103.463 458.158 103.5 455.633 103.5C455.484 103.5 455.41 103.277 455.41 102.832C455.41 102.386 455.484 102.163 455.633 102.163C458.009 102.163 459.754 101.978 460.868 101.606C461.982 101.235 462.725 100.53 463.096 99.4899C463.542 98.376 463.765 96.7052 463.765 94.4773V42.9033C463.765 40.6755 463.542 39.0418 463.096 38.0021C462.725 36.9625 461.982 36.257 460.868 35.8857C459.754 35.4401 458.009 35.2174 455.633 35.2174C455.484 35.2174 455.41 34.9946 455.41 34.549C455.41 34.1034 455.484 33.8807 455.633 33.8807L461.648 33.9921C465.064 34.1406 467.812 34.2148 469.891 34.2148C472.193 34.2148 475.052 34.1406 478.468 33.9921L484.149 33.8807C484.372 33.8807 484.483 34.1034 484.483 34.549C484.483 34.9946 484.372 35.2174 484.149 35.2174C481.847 35.2174 480.139 35.4401 479.025 35.8857C477.911 36.3313 477.169 37.111 476.797 38.2249C476.426 39.2646 476.24 40.8983 476.24 43.1261V94.4773Z" fill="white"/>
</svg>
