<svg width="120" height="16" viewBox="0 0 120 16" fill="none" xmlns="http://www.w3.org/2000/svg">
<path d="M2.96481 3.06001C2.96481 3.60688 3.10152 4.09299 3.37496 4.51833C3.66358 4.94367 4.01297 5.31585 4.42312 5.63486C4.83328 5.95386 5.38774 6.34123 6.08652 6.79695C6.84606 7.28306 7.45369 7.7084 7.90942 8.07298C8.36514 8.43756 8.75251 8.88569 9.07152 9.41737C9.39052 9.93386 9.55003 10.5339 9.55003 11.2175C9.55003 12.0074 9.33736 12.7138 8.91201 13.3366C8.48667 13.9442 7.89423 14.4227 7.13469 14.7721C6.39034 15.1063 5.55484 15.2734 4.6282 15.2734C3.9598 15.2734 3.24584 15.1823 2.48629 15C1.74194 14.8025 1.24065 14.5898 0.982403 14.362C0.906448 14.3012 0.845685 14.2481 0.800113 14.2025C0.769731 14.1417 0.75454 14.0506 0.75454 13.929L0.686181 10.306V10.2832C0.686181 10.2225 0.724159 10.1921 0.800113 10.1921C0.876067 10.1769 0.921639 10.1997 0.93683 10.2605C1.39255 11.1871 1.78752 11.939 2.12171 12.5163C2.4711 13.0936 2.90404 13.6024 3.42053 14.043C3.95221 14.4835 4.55225 14.7038 5.22064 14.7038C5.82828 14.7038 6.32957 14.5443 6.72453 14.2253C7.1195 13.8911 7.31698 13.329 7.31698 12.5391C7.31698 11.8707 7.16507 11.2858 6.86125 10.7845C6.57263 10.2832 6.21564 9.85791 5.7903 9.50852C5.36496 9.15913 4.78011 8.74138 4.03576 8.25527C3.3066 7.78436 2.73694 7.3818 2.32679 7.0476C1.93183 6.71341 1.59004 6.31085 1.30141 5.83993C1.01278 5.36902 0.868471 4.81455 0.868471 4.17654C0.868471 3.37142 1.09633 2.69543 1.55206 2.14856C2.02297 1.5865 2.62301 1.17635 3.35217 0.918106C4.08133 0.644671 4.84847 0.507953 5.65358 0.507953C6.18526 0.507953 6.72453 0.561121 7.2714 0.667457C7.81827 0.758602 8.25881 0.872533 8.59301 1.00925C8.72972 1.07001 8.82087 1.13837 8.86644 1.21433C8.91201 1.27509 8.9348 1.35864 8.9348 1.46497V4.81455C8.9348 4.86012 8.89682 4.8981 8.82087 4.92848C8.74491 4.94367 8.69934 4.92848 8.68415 4.88291L8.50186 4.44997C8.12209 3.49295 7.67396 2.68024 7.15747 2.01184C6.65618 1.34345 5.9498 1.00925 5.03835 1.00925C4.43072 1.00925 3.92942 1.18395 3.53446 1.53333C3.15469 1.88272 2.96481 2.39162 2.96481 3.06001ZM10.7497 15C10.7041 15 10.6813 14.9544 10.6813 14.8633C10.6813 14.7721 10.7041 14.7266 10.7497 14.7266C11.2358 14.7266 11.5852 14.6886 11.7979 14.6126C12.0257 14.5367 12.1776 14.3924 12.2536 14.1797C12.3295 13.9518 12.3675 13.61 12.3675 13.1543V2.60429C12.3675 2.14856 12.3295 1.81436 12.2536 1.60169C12.1776 1.38902 12.0257 1.24471 11.7979 1.16875C11.57 1.07761 11.2206 1.03204 10.7497 1.03204C10.7041 1.03204 10.6813 0.986464 10.6813 0.89532C10.6813 0.804175 10.7041 0.758603 10.7497 0.758603H20.4111C20.563 0.758603 20.6389 0.826961 20.6389 0.963677L20.6845 3.99425C20.6845 4.02463 20.6389 4.04742 20.5478 4.06261C20.4718 4.0778 20.4262 4.06261 20.4111 4.01703C20.168 3.13597 19.7578 2.48276 19.1806 2.05742C18.6033 1.63207 17.8438 1.4194 16.902 1.4194H16.2184C15.7627 1.4194 15.4285 1.51814 15.2158 1.71562C15.0031 1.9131 14.8968 2.21692 14.8968 2.62707V13.0632C14.8968 13.5037 14.9803 13.8303 15.1474 14.043C15.3145 14.2556 15.5804 14.362 15.9449 14.362H16.6969C17.8818 14.362 18.8312 14.1189 19.5452 13.6328C20.2591 13.1467 20.7832 12.3948 21.1174 11.377C21.1174 11.3466 21.1478 11.3314 21.2086 11.3314C21.2541 11.3314 21.2921 11.3466 21.3225 11.377C21.3681 11.3922 21.3909 11.4074 21.3909 11.4226C21.239 12.6074 21.163 13.686 21.163 14.6582C21.163 14.7797 21.1402 14.8709 21.0946 14.9316C21.0491 14.9772 20.9579 15 20.8212 15H10.7497ZM19.5452 9.91867C19.5452 9.29585 19.3021 8.80974 18.816 8.46035C18.3451 8.09577 17.6615 7.91348 16.7653 7.91348H13.6891V7.27547H16.788C17.6691 7.27547 18.3451 7.12356 18.816 6.81974C19.2869 6.51592 19.5224 6.09058 19.5224 5.54371C19.5224 5.49814 19.5604 5.47535 19.6363 5.47535C19.7275 5.47535 19.773 5.49814 19.773 5.54371L19.7503 7.59447L19.773 8.68821C19.8034 9.2047 19.8186 9.61485 19.8186 9.91867C19.8186 9.94905 19.773 9.96424 19.6819 9.96424C19.5907 9.96424 19.5452 9.94905 19.5452 9.91867ZM34.4874 3.67524C34.4874 2.85494 34.2975 2.20933 33.9178 1.73841C33.5532 1.26749 33.0367 1.03204 32.3683 1.03204C32.3379 1.03204 32.3227 0.986464 32.3227 0.89532C32.3227 0.804175 32.3379 0.758603 32.3683 0.758603L33.462 0.781389C34.0393 0.81177 34.5026 0.82696 34.852 0.82696C35.1406 0.82696 35.5584 0.81177 36.1053 0.781389L37.1534 0.758603C37.1838 0.758603 37.199 0.804175 37.199 0.89532C37.199 0.986464 37.1838 1.03204 37.1534 1.03204C36.561 1.03204 36.0977 1.26749 35.7635 1.73841C35.4293 2.20933 35.2622 2.85494 35.2622 3.67524V10.0098C35.2622 11.0732 35.0267 12.0074 34.5558 12.8125C34.0849 13.6176 33.4165 14.2405 32.5506 14.681C31.6999 15.1063 30.7125 15.319 29.5884 15.319C28.4643 15.319 27.4693 15.1063 26.6034 14.681C25.7375 14.2556 25.0539 13.6404 24.5526 12.8353C24.0665 12.015 23.8235 11.058 23.8235 9.96424V2.60429C23.8235 2.14856 23.7779 1.81436 23.6868 1.60169C23.6108 1.38902 23.4589 1.24471 23.231 1.16875C23.0184 1.07761 22.6766 1.03204 22.2056 1.03204C22.1601 1.03204 22.1373 0.986464 22.1373 0.89532C22.1373 0.804175 22.1601 0.758603 22.2056 0.758603L23.4133 0.781389C24.1121 0.81177 24.6666 0.82696 25.0767 0.82696C25.5324 0.82696 26.1097 0.81177 26.8085 0.781389L27.9706 0.758603C28.0161 0.758603 28.0389 0.804175 28.0389 0.89532C28.0389 0.986464 28.0161 1.03204 27.9706 1.03204C27.4996 1.03204 27.1503 1.07761 26.9224 1.16875C26.7097 1.2599 26.5578 1.4194 26.4667 1.64727C26.3907 1.85994 26.3527 2.19413 26.3527 2.64986V9.16672C26.3527 10.9744 26.7097 12.3112 27.4237 13.1771C28.1377 14.043 29.1479 14.4759 30.4543 14.4759C31.7151 14.4759 32.7025 14.0961 33.4165 13.3366C34.1304 12.5619 34.4874 11.4605 34.4874 10.0326V3.67524ZM39.4805 1.28268L40.164 1.32826V12.1061C40.164 12.9113 40.3311 13.5493 40.6653 14.0202C40.9995 14.4911 41.4629 14.7266 42.0553 14.7266C42.0857 14.7266 42.1009 14.7721 42.1009 14.8633C42.1009 14.9544 42.0857 15 42.0553 15C41.63 15 41.3034 14.9924 41.0755 14.9772L39.845 14.9544L38.4323 14.9772C38.1741 14.9924 37.8019 15 37.3158 15C37.2702 15 37.2474 14.9544 37.2474 14.8633C37.2474 14.7721 37.2702 14.7266 37.3158 14.7266C37.9842 14.7266 38.5082 14.4911 38.888 14.0202C39.283 13.5493 39.4805 12.9113 39.4805 12.1061V1.28268ZM51.1014 15.3418C51.1014 15.3874 51.0635 15.4177 50.9875 15.4329C50.9267 15.4481 50.8812 15.4405 50.8508 15.4102L39.6172 2.62707C39.0855 2.01944 38.6298 1.60169 38.25 1.37383C37.8702 1.14597 37.4829 1.03204 37.0879 1.03204C37.0575 1.03204 37.0423 0.986464 37.0423 0.89532C37.0423 0.804175 37.0575 0.758603 37.0879 0.758603L38.0449 0.781389C38.2424 0.796579 38.531 0.804175 38.9108 0.804175L40.6426 0.781389C40.8552 0.766198 41.1135 0.758603 41.4173 0.758603C41.5388 0.758603 41.63 0.788984 41.6907 0.849746C41.7515 0.91051 41.8578 1.03963 42.0097 1.23711C42.268 1.5865 42.4503 1.82196 42.5566 1.94349L50.9192 11.5821L51.1014 15.3418ZM51.1014 15.3418L50.4406 14.6582V3.67524C50.4406 2.85494 50.2735 2.20933 49.9393 1.73841C49.6051 1.26749 49.1418 1.03204 48.5494 1.03204C48.519 1.03204 48.5038 0.986464 48.5038 0.89532C48.5038 0.804175 48.519 0.758603 48.5494 0.758603L49.5292 0.781389C50.0153 0.81177 50.4255 0.82696 50.7596 0.82696C51.0635 0.82696 51.4888 0.81177 52.0357 0.781389L53.0611 0.758603C53.0914 0.758603 53.1066 0.804175 53.1066 0.89532C53.1066 0.986464 53.0914 1.03204 53.0611 1.03204C52.4534 1.03204 51.9749 1.27509 51.6255 1.7612C51.2761 2.23211 51.1014 2.87013 51.1014 3.67524V15.3418ZM53.2058 15C53.1602 15 53.1374 14.9544 53.1374 14.8633C53.1374 14.7721 53.1602 14.7266 53.2058 14.7266C53.7375 14.7266 54.1248 14.6886 54.3679 14.6126C54.6109 14.5367 54.7704 14.3924 54.8464 14.1797C54.9375 13.9518 54.9831 13.61 54.9831 13.1543V2.60429C54.9831 2.14856 54.9451 1.81436 54.8692 1.60169C54.7932 1.38902 54.6413 1.24471 54.4135 1.16875C54.1856 1.07761 53.8362 1.03204 53.3653 1.03204C53.3197 1.03204 53.2969 0.986464 53.2969 0.89532C53.2969 0.804175 53.3197 0.758603 53.3653 0.758603H63.0267C63.1786 0.758603 63.2545 0.826961 63.2545 0.963677L63.3001 3.99425C63.3001 4.02463 63.2545 4.04742 63.1634 4.06261C63.0874 4.0778 63.0418 4.06261 63.0267 4.01703C62.7836 3.13597 62.3734 2.48276 61.7962 2.05742C61.2189 1.63207 60.4594 1.4194 59.5176 1.4194H58.834C58.3783 1.4194 58.0441 1.51814 57.8314 1.71562C57.6187 1.9131 57.5124 2.21692 57.5124 2.62707V13.0632C57.5124 13.5341 57.5731 13.8835 57.6947 14.1113C57.8162 14.3392 58.0441 14.4987 58.3783 14.5898C58.7125 14.681 59.2365 14.7266 59.9505 14.7266C59.9809 14.7266 59.9961 14.7721 59.9961 14.8633C59.9961 14.9544 59.9809 15 59.9505 15C59.3277 15 58.8416 14.9924 58.4922 14.9772L56.168 14.9544L54.459 14.9772C54.1552 14.9924 53.7375 15 53.2058 15ZM61.8873 10.1693C61.8873 9.56168 61.6443 9.08317 61.1582 8.73379C60.6873 8.3692 60.0113 8.18691 59.1302 8.18691H56.3047V7.5489H59.153C60.0341 7.5489 60.7025 7.39699 61.1582 7.09318C61.6291 6.77417 61.8646 6.34123 61.8646 5.79436C61.8646 5.76398 61.9101 5.74879 62.0013 5.74879C62.0924 5.74879 62.138 5.76398 62.138 5.79436L62.1152 7.86791C62.1152 8.35401 62.1228 8.71859 62.138 8.96165L62.1608 10.1693C62.1608 10.2149 62.1152 10.2377 62.0241 10.2377C61.9329 10.2377 61.8873 10.2149 61.8873 10.1693ZM76.4355 3.67524C76.4355 2.85494 76.2456 2.20933 75.8658 1.73841C75.5012 1.26749 74.9847 1.03204 74.3163 1.03204C74.286 1.03204 74.2708 0.986464 74.2708 0.89532C74.2708 0.804175 74.286 0.758603 74.3163 0.758603L75.4101 0.781389C75.9873 0.81177 76.4507 0.82696 76.8 0.82696C77.0887 0.82696 77.5064 0.81177 78.0533 0.781389L79.1015 0.758603C79.1318 0.758603 79.147 0.804175 79.147 0.89532C79.147 0.986464 79.1318 1.03204 79.1015 1.03204C78.509 1.03204 78.0457 1.26749 77.7115 1.73841C77.3773 2.20933 77.2102 2.85494 77.2102 3.67524V10.0098C77.2102 11.0732 76.9747 12.0074 76.5038 12.8125C76.0329 13.6176 75.3645 14.2405 74.4986 14.681C73.6479 15.1063 72.6605 15.319 71.5364 15.319C70.4123 15.319 69.4173 15.1063 68.5514 14.681C67.6855 14.2556 67.002 13.6404 66.5007 12.8353C66.0146 12.015 65.7715 11.058 65.7715 9.96424V2.60429C65.7715 2.14856 65.7259 1.81436 65.6348 1.60169C65.5588 1.38902 65.4069 1.24471 65.1791 1.16875C64.9664 1.07761 64.6246 1.03204 64.1537 1.03204C64.1081 1.03204 64.0853 0.986464 64.0853 0.89532C64.0853 0.804175 64.1081 0.758603 64.1537 0.758603L65.3614 0.781389C66.0601 0.81177 66.6146 0.82696 67.0247 0.82696C67.4805 0.82696 68.0577 0.81177 68.7565 0.781389L69.9186 0.758603C69.9642 0.758603 69.987 0.804175 69.987 0.89532C69.987 0.986464 69.9642 1.03204 69.9186 1.03204C69.4477 1.03204 69.0983 1.07761 68.8704 1.16875C68.6578 1.2599 68.5059 1.4194 68.4147 1.64727C68.3388 1.85994 68.3008 2.19413 68.3008 2.64986V9.16672C68.3008 10.9744 68.6578 12.3112 69.3717 13.1771C70.0857 14.043 71.0959 14.4759 72.4023 14.4759C73.6631 14.4759 74.6505 14.0961 75.3645 13.3366C76.0785 12.5619 76.4355 11.4605 76.4355 10.0326V3.67524ZM81.4285 1.28268L82.1121 1.32826V12.1061C82.1121 12.9113 82.2792 13.5493 82.6134 14.0202C82.9476 14.4911 83.4109 14.7266 84.0033 14.7266C84.0337 14.7266 84.0489 14.7721 84.0489 14.8633C84.0489 14.9544 84.0337 15 84.0033 15C83.578 15 83.2514 14.9924 83.0235 14.9772L81.7931 14.9544L80.3803 14.9772C80.1221 14.9924 79.7499 15 79.2638 15C79.2182 15 79.1954 14.9544 79.1954 14.8633C79.1954 14.7721 79.2182 14.7266 79.2638 14.7266C79.9322 14.7266 80.4563 14.4911 80.8361 14.0202C81.231 13.5493 81.4285 12.9113 81.4285 12.1061V1.28268ZM93.0495 15.3418C93.0495 15.3874 93.0115 15.4177 92.9355 15.4329C92.8748 15.4481 92.8292 15.4405 92.7988 15.4102L81.5652 2.62707C81.0335 2.01944 80.5778 1.60169 80.198 1.37383C79.8183 1.14597 79.4309 1.03204 79.0359 1.03204C79.0056 1.03204 78.9904 0.986464 78.9904 0.89532C78.9904 0.804175 79.0056 0.758603 79.0359 0.758603L79.993 0.781389C80.1904 0.796579 80.4791 0.804175 80.8588 0.804175L82.5906 0.781389C82.8033 0.766198 83.0615 0.758603 83.3653 0.758603C83.4869 0.758603 83.578 0.788984 83.6388 0.849746C83.6995 0.91051 83.8059 1.03963 83.9578 1.23711C84.216 1.5865 84.3983 1.82196 84.5046 1.94349L92.8672 11.5821L93.0495 15.3418ZM93.0495 15.3418L92.3887 14.6582V3.67524C92.3887 2.85494 92.2216 2.20933 91.8874 1.73841C91.5532 1.26749 91.0899 1.03204 90.4974 1.03204C90.467 1.03204 90.4518 0.986464 90.4518 0.89532C90.4518 0.804175 90.467 0.758603 90.4974 0.758603L91.4772 0.781389C91.9633 0.81177 92.3735 0.82696 92.7077 0.82696C93.0115 0.82696 93.4368 0.81177 93.9837 0.781389L95.0091 0.758603C95.0395 0.758603 95.0547 0.804175 95.0547 0.89532C95.0547 0.986464 95.0395 1.03204 95.0091 1.03204C94.4015 1.03204 93.923 1.27509 93.5736 1.7612C93.2242 2.23211 93.0495 2.87013 93.0495 3.67524V15.3418ZM97.2729 1.28268L97.9337 1.32826L97.6831 12.1061C97.6679 12.9265 97.8274 13.5721 98.1616 14.043C98.511 14.4987 98.9971 14.7266 99.6199 14.7266C99.6655 14.7266 99.6883 14.7721 99.6883 14.8633C99.6883 14.9544 99.6655 15 99.6199 15C99.2098 15 98.8908 14.9924 98.6629 14.9772L97.4097 14.9544L95.9741 14.9772C95.7311 14.9924 95.4045 15 94.9943 15C94.9487 15 94.926 14.9544 94.926 14.8633C94.926 14.7721 94.9487 14.7266 94.9943 14.7266C95.6171 14.7266 96.1108 14.4911 96.4754 14.0202C96.84 13.5493 97.0299 12.9113 97.0451 12.1061L97.2729 1.28268ZM113.36 14.7266C113.39 14.7266 113.406 14.7721 113.406 14.8633C113.406 14.9544 113.39 15 113.36 15C112.844 15 112.433 14.9924 112.13 14.9772L110.443 14.9544L108.734 14.9772C108.446 14.9924 108.051 15 107.55 15C107.504 15 107.481 14.9544 107.481 14.8633C107.481 14.7721 107.504 14.7266 107.55 14.7266C108.036 14.7266 108.393 14.6886 108.62 14.6126C108.864 14.5215 109.023 14.3696 109.099 14.1569C109.175 13.9442 109.198 13.61 109.167 13.1543L108.643 3.03723L109.805 1.21433L103.995 14.8405C103.964 14.9013 103.904 14.9316 103.813 14.9316C103.721 14.9316 103.661 14.9013 103.63 14.8405L97.2274 2.64986C96.9236 2.0878 96.6045 1.67765 96.2703 1.4194C95.9513 1.16116 95.5792 1.03204 95.1538 1.03204C95.1082 1.03204 95.0855 0.986464 95.0855 0.89532C95.0855 0.804175 95.1082 0.758603 95.1538 0.758603L96.2248 0.781389C96.4374 0.796579 96.7109 0.804175 97.0451 0.804175L98.2527 0.781389C98.3895 0.766198 98.5642 0.758603 98.7768 0.758603C98.9743 0.758603 99.1262 0.826961 99.2326 0.963677C99.3389 1.10039 99.5364 1.427 99.825 1.94349L104.929 11.5137L103.79 13.5645L109.122 1.32826C109.213 1.11559 109.304 0.971274 109.395 0.89532C109.502 0.804175 109.638 0.758603 109.805 0.758603C109.942 0.758603 110.094 0.766198 110.261 0.781389C110.443 0.796579 110.648 0.804175 110.876 0.804175L112.221 0.781389C112.433 0.766198 112.737 0.758603 113.132 0.758603C113.178 0.758603 113.201 0.804175 113.201 0.89532C113.201 0.986464 113.178 1.03204 113.132 1.03204C112.418 1.03204 111.902 1.17635 111.583 1.46497C111.264 1.7536 111.119 2.20173 111.15 2.80936L111.697 13.1543C111.727 13.6252 111.78 13.967 111.856 14.1797C111.947 14.3924 112.099 14.5367 112.312 14.6126C112.54 14.6886 112.889 14.7266 113.36 14.7266ZM118.178 13.1543C118.178 13.6252 118.216 13.967 118.291 14.1797C118.367 14.3924 118.512 14.5367 118.724 14.6126C118.952 14.6886 119.309 14.7266 119.795 14.7266C119.841 14.7266 119.864 14.7721 119.864 14.8633C119.864 14.9544 119.841 15 119.795 15C119.294 15 118.899 14.9924 118.61 14.9772L116.879 14.9544L115.193 14.9772C114.889 14.9924 114.479 15 113.962 15C113.932 15 113.917 14.9544 113.917 14.8633C113.917 14.7721 113.932 14.7266 113.962 14.7266C114.448 14.7266 114.805 14.6886 115.033 14.6126C115.261 14.5367 115.413 14.3924 115.489 14.1797C115.58 13.9518 115.625 13.61 115.625 13.1543V2.60429C115.625 2.14856 115.58 1.81436 115.489 1.60169C115.413 1.38902 115.261 1.24471 115.033 1.16875C114.805 1.07761 114.448 1.03204 113.962 1.03204C113.932 1.03204 113.917 0.986464 113.917 0.89532C113.917 0.804175 113.932 0.758603 113.962 0.758603L115.193 0.781389C115.891 0.81177 116.453 0.82696 116.879 0.82696C117.35 0.82696 117.934 0.81177 118.633 0.781389L119.795 0.758603C119.841 0.758603 119.864 0.804175 119.864 0.89532C119.864 0.986464 119.841 1.03204 119.795 1.03204C119.324 1.03204 118.975 1.07761 118.747 1.16875C118.519 1.2599 118.367 1.4194 118.291 1.64727C118.216 1.85994 118.178 2.19413 118.178 2.64986V13.1543Z" fill="white"/>
</svg>
