<svg width="60" height="160" viewBox="0 0 60 160" fill="none" xmlns="http://www.w3.org/2000/svg">
<mask id="path-1-inside-1_55_3770" fill="white">
<path d="M0 4C0 1.79086 1.79086 0 4 0H56C58.2091 0 60 1.79086 60 4V156C60 158.209 58.2091 160 56 160H4C1.79086 160 0 158.209 0 156V4Z"/>
</mask>
<path d="M0 4C0 1.79086 1.79086 0 4 0H56C58.2091 0 60 1.79086 60 4V156C60 158.209 58.2091 160 56 160H4C1.79086 160 0 158.209 0 156V4Z" fill="#0A0A0A"/>
<path d="M-1 4C-1 1.23858 1.23858 -1 4 -1H55C57.7614 -1 60 1.23858 60 4C60 2.34315 58.2091 1 56 1H4C2.34315 1 1 2.34315 1 4H-1ZM60 156C60 158.761 57.7614 161 55 161H4C1.23858 161 -1 158.761 -1 156H1C1 157.657 2.34315 159 4 159H56C58.2091 159 60 157.657 60 156ZM4 161C1.23858 161 -1 158.761 -1 156V4C-1 1.23858 1.23858 -1 4 -1V1C2.34315 1 1 2.34315 1 4V156C1 157.657 2.34315 159 4 159V161ZM60 0V160V0Z" fill="url(#paint0_linear_55_3770)" mask="url(#path-1-inside-1_55_3770)"/>
<g clip-path="url(#clip0_55_3770)">
<g filter="url(#filter0_i_55_3770)">
<rect x="47.9998" y="28" width="103.612" height="35.9187" rx="17.9594" transform="rotate(90 47.9998 28)" fill="url(#paint1_linear_55_3770)"/>
</g>
<g opacity="0.35">
<path d="M54.3776 74.9902C54.641 74.6578 54.7024 74.307 54.7267 74.1579C54.865 73.3115 54.3277 72.8754 54.5655 72.5319C54.7434 72.2748 55.0628 72.4839 55.6439 72.2259C55.7079 72.1976 56.4472 71.8561 56.7443 71.0673C56.9904 70.4138 56.8003 69.8057 56.7236 69.5602C56.4335 68.6322 55.8055 68.3499 55.9469 68.0262C56.0722 67.7394 56.5892 67.8858 57.4347 67.5922C57.6086 67.5319 58.275 67.2857 58.805 66.7646C59.1279 66.4471 59.3415 66.0846 59.4825 65.7338C58.86 64.3525 58.0703 63.0524 57.1642 61.834C56.1619 60.4861 56.7387 58.8981 56.5895 57.3396C56.4865 56.2649 55.9301 55.3533 55.288 54.513C54.9923 54.126 54.686 53.927 54.3235 53.6184C54.2325 53.5408 54.0497 53.4086 54.0139 53.2712C53.9327 52.9607 54.1727 52.4721 54.3696 52.0877C54.0988 52.1764 53.9596 52.3428 53.9109 52.3011C53.8561 52.2541 54.0179 52.031 54.1294 51.7187C54.2635 51.343 54.2564 51.0243 54.2555 50.8261C54.2548 50.674 54.2386 50.0515 53.8695 49.4406C53.8617 49.4275 53.8499 49.4082 53.8344 49.3835C53.757 49.2611 53.04 48.1704 51.9083 48.1753C51.2501 48.1781 50.6263 48.5509 50.2884 49.0292C49.8999 49.5789 50.1499 49.8984 49.7143 50.9913C49.4555 51.6406 49.3524 51.5655 49.1294 52.1619C48.8013 53.0397 48.7996 53.8045 48.8027 54.2517C48.8065 54.813 48.8109 55.4612 49.096 56.2229C49.4122 57.0681 49.8911 57.5647 49.6954 58.2055C49.6439 58.374 49.5921 58.3819 49.5113 58.6489C49.4691 58.7889 49.3367 59.262 49.384 59.8839C49.4626 60.9174 49.9459 61.1566 50.0137 61.858C50.0921 62.6687 49.4174 63.0879 49.0996 63.8604C47.9796 66.5837 48.603 70.448 50.432 71.567C50.7869 71.7841 51.0648 71.8231 51.3367 72.1824C51.9956 73.0537 51.2962 74.0409 51.9643 74.9558C52.0283 75.0435 52.4293 75.5747 53.0729 75.6231C53.8163 75.6789 54.3308 75.0496 54.3776 74.9902Z" fill="#F2F7F8"/>
<path d="M53.8982 74.405C54.2968 73.7078 54.0441 72.9266 53.9653 72.6829C53.722 71.9309 53.3716 71.9645 53.2887 71.3846C53.1926 70.714 53.6458 70.5625 53.5585 69.8772C53.4783 69.247 53.0669 69.2064 52.9719 68.5395C52.906 68.0765 53.0916 68.0081 53.2389 67.1763C53.3 66.8319 53.4278 66.0735 53.2652 65.2026C53.2 64.8538 53.0591 64.3301 52.718 63.738C52.4029 63.5416 51.679 63.102 51.3499 62.2165C51.0994 61.5425 51.0317 60.7613 51.0785 60.0528C51.1116 59.5529 51.3815 57.4381 52.1946 57.2154C51.6607 56.5461 51.1126 55.8506 50.9258 55.0028C50.8329 54.5814 50.6459 53.6807 51.1133 52.7626C51.3365 52.3241 51.6338 52.031 51.8421 51.8576C51.7258 51.6142 51.5597 51.1691 51.6174 50.6219C51.7557 49.3147 53.0408 48.6779 53.1417 48.6299C52.9418 48.4877 52.5094 48.2221 51.9082 48.1759C51.7512 48.1637 50.6689 48.0992 49.926 48.9645C49.2104 49.7981 49.3946 50.8129 49.4198 50.9388C49.1498 51.2448 48.0914 52.5159 48.1036 54.4319C48.1173 56.5946 49.4847 57.9472 49.7352 58.1864C49.6254 58.2932 48.9025 59.0206 48.9642 60.1525C49.0232 61.2332 49.7529 61.8648 49.8762 61.9681C49.6219 62.3836 49.2712 63.0229 48.9775 63.8498C48.6769 64.6959 47.564 67.8295 49.1161 70.6825C49.3939 71.1932 49.9112 71.9781 50.8621 72.7373C50.4944 73.8083 50.9034 74.8626 51.6254 75.2015C52.1655 75.4549 52.843 75.2905 53.2815 75.0221C53.3998 74.9492 53.692 74.7655 53.8982 74.405Z" fill="#CEEAF0"/>
</g>
<g filter="url(#filter1_f_55_3770)">
<circle cx="30.0405" cy="113.652" r="14.3675" transform="rotate(90 30.0405 113.652)" fill="white"/>
</g>
<path d="M15.673 113.652C15.673 121.587 22.1055 128.02 30.0405 128.02C37.9754 128.02 44.408 121.587 44.408 113.652C44.408 105.717 37.9754 99.2847 30.0405 99.2847C22.1055 99.2847 15.673 105.717 15.673 113.652Z" fill="#EFEAD7"/>
<g opacity="0.54">
<path d="M44.408 113.652C44.408 112.739 44.3218 111.846 44.159 110.98C42.9065 117.638 37.0624 122.675 30.0406 122.675C23.0189 122.675 17.1746 117.638 15.9223 110.98C15.7593 111.846 15.6731 112.739 15.6731 113.652C15.6731 121.587 22.1057 128.02 30.0406 128.02C37.9756 128.02 44.408 121.587 44.408 113.652Z" fill="#E5E0CF"/>
</g>
<mask id="mask0_55_3770" style="mask-type:luminance" maskUnits="userSpaceOnUse" x="15" y="99" width="30" height="30">
<path d="M15.673 113.652C15.673 121.587 22.1055 128.02 30.0405 128.02C37.9754 128.02 44.408 121.587 44.408 113.652C44.408 105.717 37.9754 99.2847 30.0405 99.2847C22.1055 99.2847 15.673 105.717 15.673 113.652Z" fill="white"/>
</mask>
<g mask="url(#mask0_55_3770)">
<path d="M36.9825 109.977C36.9825 109.864 36.9681 109.754 36.9432 109.649C36.7949 110.28 36.2294 110.751 35.5528 110.751C34.8763 110.751 34.3109 110.28 34.1624 109.649C34.1377 109.754 34.1231 109.864 34.1231 109.977C34.1231 110.766 34.7631 111.406 35.5527 111.406C36.3425 111.406 36.9825 110.766 36.9825 109.977Z" fill="#DDD8CA"/>
<path d="M35.5531 110.751C36.2296 110.751 36.795 110.281 36.9435 109.649C36.7951 109.018 36.2297 108.547 35.5531 108.547C34.8766 108.547 34.3112 109.018 34.1627 109.649C34.311 110.28 34.8764 110.751 35.5531 110.751Z" fill="#E5E0CF"/>
<path d="M20.2133 109.806C20.2133 109.731 20.2035 109.658 20.187 109.587C20.0879 110.009 19.7102 110.323 19.2583 110.323C18.8064 110.323 18.4286 110.009 18.3296 109.587C18.3129 109.658 18.3034 109.731 18.3034 109.806C18.3034 110.334 18.731 110.761 19.2584 110.761C19.7856 110.761 20.2133 110.334 20.2133 109.806Z" fill="#DDD8CA"/>
<path d="M19.2581 110.323C19.7101 110.323 20.0879 110.009 20.1869 109.587C20.0877 109.165 19.7101 108.851 19.2581 108.851C18.8062 108.851 18.4284 109.165 18.3294 109.587C18.4284 110.009 18.8062 110.323 19.2581 110.323Z" fill="#E5E0CF"/>
<path d="M25.6011 107.441C25.6011 107.282 25.5808 107.129 25.546 106.981C25.3377 107.867 24.5443 108.527 23.5947 108.527C22.6453 108.527 21.8517 107.867 21.6435 106.981C21.6086 107.129 21.5883 107.283 21.5883 107.441C21.5883 108.549 22.4865 109.447 23.5947 109.447C24.7029 109.447 25.6011 108.549 25.6011 107.441Z" fill="#DDD8CA"/>
<path d="M23.5949 108.527C24.5443 108.527 25.3378 107.867 25.5461 106.981C25.3379 106.095 24.5444 105.435 23.5949 105.435C22.6455 105.435 21.8519 106.095 21.6437 106.981C21.8519 107.867 22.6454 108.527 23.5949 108.527Z" fill="#E5E0CF"/>
<path d="M36.2889 104.55C36.2889 104.308 36.258 104.074 36.205 103.849C35.8877 105.199 34.6784 106.205 33.2314 106.205C31.7844 106.205 30.5752 105.199 30.2578 103.849C30.2049 104.074 30.1738 104.308 30.1738 104.55C30.1738 106.239 31.5427 107.608 33.2314 107.608C34.92 107.608 36.2889 106.239 36.2889 104.55Z" fill="#DDD8CA"/>
<path d="M33.2315 106.205C34.6785 106.205 35.8877 105.199 36.2051 103.849C35.8877 102.498 34.6785 101.492 33.2315 101.492C31.7844 101.492 30.5752 102.498 30.2579 103.849C30.5752 105.199 31.7844 106.205 33.2315 106.205Z" fill="#E5E0CF"/>
<path d="M26.8275 118.982C26.8275 118.683 26.7893 118.394 26.7236 118.115C26.3311 119.784 24.8356 121.029 23.0462 121.029C21.2567 121.029 19.7612 119.784 19.3687 118.115C19.3032 118.394 19.2648 118.683 19.2648 118.982C19.2648 121.07 20.9577 122.763 23.0461 122.763C25.1346 122.763 26.8275 121.07 26.8275 118.982Z" fill="#DDD8CA"/>
<path d="M23.0462 121.029C24.8358 121.029 26.3313 119.785 26.7236 118.115C26.3311 116.445 24.8356 115.201 23.0462 115.201C21.2567 115.201 19.7612 116.445 19.3687 118.115C19.7612 119.785 21.2567 121.029 23.0462 121.029Z" fill="#E5E0CF"/>
<path d="M33.1005 120.5C33.1005 120.312 33.0764 120.13 33.0351 119.955C32.7881 121.006 31.8467 121.789 30.7202 121.789C29.5938 121.789 28.6525 121.006 28.4054 119.955C28.3642 120.13 28.34 120.312 28.34 120.5C28.34 121.815 29.4056 122.881 30.7202 122.881C32.0349 122.881 33.1005 121.815 33.1005 120.5Z" fill="#DDD8CA"/>
<path d="M30.7203 121.789C31.8467 121.789 32.788 121.006 33.0352 119.954C32.7882 118.903 31.8467 118.12 30.7203 118.12C29.5939 118.12 28.6526 118.903 28.4055 119.954C28.6525 121.006 29.5939 121.789 30.7203 121.789Z" fill="#E5E0CF"/>
<path d="M29.2367 124.831C29.2367 124.71 29.2213 124.594 29.1948 124.481C29.0366 125.154 28.4336 125.656 27.7121 125.656C26.9906 125.656 26.3878 125.154 26.2296 124.481C26.2031 124.593 26.1877 124.71 26.1877 124.831C26.1877 125.673 26.8703 126.355 27.7121 126.355C28.5541 126.355 29.2367 125.673 29.2367 124.831Z" fill="#DDD8CA"/>
<path d="M27.7123 125.656C28.4337 125.656 29.0366 125.154 29.1949 124.481C29.0367 123.808 28.4337 123.306 27.7123 123.306C26.9908 123.306 26.3879 123.808 26.2297 124.481C26.3879 125.154 26.9908 125.656 27.7123 125.656Z" fill="#E5E0CF"/>
<path d="M35.6096 124.195C35.6096 124.08 35.5949 123.968 35.5695 123.86C35.418 124.505 34.8409 124.985 34.1503 124.985C33.4598 124.985 32.8826 124.505 32.7311 123.86C32.7059 123.968 32.691 124.08 32.691 124.195C32.691 125.001 33.3444 125.654 34.1503 125.654C34.9562 125.654 35.6096 125.001 35.6096 124.195Z" fill="#DDD8CA"/>
<path d="M34.1503 124.985C34.8408 124.985 35.418 124.505 35.5695 123.86C35.418 123.216 34.8408 122.736 34.1503 122.736C33.4597 122.736 32.8825 123.216 32.7311 123.86C32.8825 124.505 33.4597 124.985 34.1503 124.985Z" fill="#E5E0CF"/>
<path d="M41.6045 108.624C41.6045 108.478 41.5858 108.338 41.554 108.202C41.3632 109.014 40.6359 109.619 39.7657 109.619C38.8954 109.619 38.1683 109.014 37.9774 108.202C37.9455 108.338 37.9268 108.478 37.9268 108.624C37.9268 109.639 38.75 110.463 39.7657 110.463C40.7813 110.463 41.6045 109.639 41.6045 108.624Z" fill="#DDD8CA"/>
<path d="M39.7658 109.619C40.6359 109.619 41.3632 109.014 41.5541 108.202C41.3633 107.39 40.636 106.785 39.7658 106.785C38.8955 106.785 38.1684 107.39 37.9775 108.202C38.1684 109.014 38.8957 109.619 39.7658 109.619Z" fill="#E5E0CF"/>
</g>
<ellipse cx="-0.628613" cy="35.1839" rx="37.5765" ry="27.9061" transform="rotate(90 -0.628613 35.1839)" fill="url(#paint2_linear_55_3770)"/>
<circle cx="40.4016" cy="49.9657" r="0.414447" transform="rotate(90 40.4016 49.9657)" fill="#C7C7C7"/>
<circle cx="39.849" cy="68.4779" r="0.414447" transform="rotate(90 39.849 68.4779)" fill="#C7C7C7"/>
<circle cx="18.2977" cy="95.5551" r="0.414447" transform="rotate(90 18.2977 95.5551)" fill="#C7C7C7"/>
<circle cx="42.3357" cy="92.2396" r="0.414447" transform="rotate(90 42.3357 92.2396)" fill="#C7C7C7"/>
<circle cx="34.5993" cy="88.6478" r="0.414447" transform="rotate(90 34.5993 88.6478)" fill="#C7C7C7"/>
<circle cx="27.4156" cy="76.2142" r="0.414447" transform="rotate(90 27.4156 76.2142)" fill="#C7C7C7"/>
<circle cx="17.7452" cy="73.1747" r="0.414447" transform="rotate(90 17.7452 73.1747)" fill="#C7C7C7"/>
<circle cx="31.0076" cy="52.1762" r="0.414447" transform="rotate(90 31.0076 52.1762)" fill="#C7C7C7"/>
<circle cx="36.2572" cy="39.1903" r="0.414447" transform="rotate(90 36.2572 39.1903)" fill="#C7C7C7"/>
</g>
<defs>
<filter id="filter0_i_55_3770" x="11.5285" y="28" width="36.4713" height="104.717" filterUnits="userSpaceOnUse" color-interpolation-filters="sRGB">
<feFlood flood-opacity="0" result="BackgroundImageFix"/>
<feBlend mode="normal" in="SourceGraphic" in2="BackgroundImageFix" result="shape"/>
<feColorMatrix in="SourceAlpha" type="matrix" values="0 0 0 0 0 0 0 0 0 0 0 0 0 0 0 0 0 0 127 0" result="hardAlpha"/>
<feOffset dx="-0.552596" dy="1.10519"/>
<feGaussianBlur stdDeviation="1.93408"/>
<feComposite in2="hardAlpha" operator="arithmetic" k2="-1" k3="1"/>
<feColorMatrix type="matrix" values="0 0 0 0 0 0 0 0 0 0 0 0 0 0 0 0 0 0 0.3 0"/>
<feBlend mode="normal" in2="shape" result="effect1_innerShadow_55_3770"/>
</filter>
<filter id="filter1_f_55_3770" x="11.8048" y="95.4165" width="36.4713" height="36.4712" filterUnits="userSpaceOnUse" color-interpolation-filters="sRGB">
<feFlood flood-opacity="0" result="BackgroundImageFix"/>
<feBlend mode="normal" in="SourceGraphic" in2="BackgroundImageFix" result="shape"/>
<feGaussianBlur stdDeviation="1.93408" result="effect1_foregroundBlur_55_3770"/>
</filter>
<linearGradient id="paint0_linear_55_3770" x1="-8.28452" y1="-193.208" x2="79.5153" y2="-189.729" gradientUnits="userSpaceOnUse">
<stop stop-color="#8268B0"/>
<stop offset="1" stop-color="#6E1270"/>
</linearGradient>
<linearGradient id="paint1_linear_55_3770" x1="63.3736" y1="71.2406" x2="153.576" y2="32.5836" gradientUnits="userSpaceOnUse">
<stop stop-color="#041326"/>
<stop offset="1" stop-color="#0E314C"/>
</linearGradient>
<linearGradient id="paint2_linear_55_3770" x1="-0.628613" y1="7.27784" x2="-0.628613" y2="63.09" gradientUnits="userSpaceOnUse">
<stop stop-color="#0C2F45"/>
<stop offset="1" stop-color="#151F25"/>
</linearGradient>
<clipPath id="clip0_55_3770">
<rect x="47.9998" y="28" width="103.612" height="35.9851" rx="17.9925" transform="rotate(90 47.9998 28)" fill="white"/>
</clipPath>
</defs>
</svg>
