<svg width="60" height="160" viewBox="0 0 60 160" fill="none" xmlns="http://www.w3.org/2000/svg">
<mask id="path-1-inside-1_55_3843" fill="white">
<path d="M0 4C0 1.79086 1.79086 0 4 0H56C58.2091 0 60 1.79086 60 4V156C60 158.209 58.2091 160 56 160H4C1.79086 160 0 158.209 0 156V4Z"/>
</mask>
<path d="M0 4C0 1.79086 1.79086 0 4 0H56C58.2091 0 60 1.79086 60 4V156C60 158.209 58.2091 160 56 160H4C1.79086 160 0 158.209 0 156V4Z" fill="#F5F5F5"/>
<path d="M-1 4C-1 1.23858 1.23858 -1 4 -1H55C57.7614 -1 60 1.23858 60 4C60 2.34315 58.2091 1 56 1H4C2.34315 1 1 2.34315 1 4H-1ZM60 156C60 158.761 57.7614 161 55 161H4C1.23858 161 -1 158.761 -1 156H1C1 157.657 2.34315 159 4 159H56C58.2091 159 60 157.657 60 156ZM4 161C1.23858 161 -1 158.761 -1 156V4C-1 1.23858 1.23858 -1 4 -1V1C2.34315 1 1 2.34315 1 4V156C1 157.657 2.34315 159 4 159V161ZM60 0V160V0Z" fill="url(#paint0_linear_55_3843)" mask="url(#path-1-inside-1_55_3843)"/>
<g clip-path="url(#clip0_55_3843)">
<g filter="url(#filter0_i_55_3843)">
<rect x="47.9998" y="28" width="103.612" height="35.9187" rx="17.9594" transform="rotate(90 47.9998 28)" fill="url(#paint1_linear_55_3843)"/>
</g>
<g opacity="0.75">
<path d="M34.5957 120.927C34.8195 120.851 35.2926 120.655 35.6589 120.177C35.7048 120.118 36.2546 119.381 36.1063 118.594C35.9924 117.99 35.9292 117.77 35.9292 117.77C35.8551 117.524 35.7907 117.35 35.8722 117.265C35.9532 117.181 36.1206 117.246 36.2558 117.265C36.7238 117.33 37.1523 116.889 37.3941 116.64C38.1022 115.91 38.0779 114.8 38.0652 114.329C38.0235 112.803 37.1686 111.836 37.0725 111.731C36.6666 111.286 36.4856 111.409 36.2881 110.978C35.9847 110.316 36.2895 109.759 35.9341 108.927C35.8548 108.741 35.6545 108.349 35.3724 108.228C35.1622 108.137 34.9906 108.21 34.8524 108.268C34.7248 108.322 34.6239 108.365 34.5355 108.273C34.4278 108.161 34.4319 107.943 34.4377 107.641C34.441 107.467 34.4449 107.269 34.4286 107.048C34.3626 106.155 33.4049 105.723 33.4535 104.821C33.4624 104.658 33.5033 104.53 33.5273 104.464C32.6918 104.147 32.1867 104.256 31.8897 104.395C29.6785 105.427 30.4447 112.093 30.7748 114.963C30.9033 116.081 31.0318 116.672 31.0531 117.883C31.0823 119.549 31.113 120.257 31.1746 121.673C31.21 122.487 31.2324 122.817 31.4982 123.09C32.1104 123.719 33.592 123.611 34.286 122.837C34.6698 122.409 34.7342 121.865 34.738 121.829C34.7814 121.412 34.664 121.083 34.5957 120.927Z" fill="#F2F7F8"/>
<path d="M33.6857 119.364C33.7144 119.773 33.7705 120.57 34.3552 120.873C34.9318 121.171 35.6516 120.797 36.0152 120.466C36.7573 119.791 36.6106 118.755 36.586 118.599C36.4763 117.901 36.0616 117.458 35.8994 117.301C36.1754 117.307 36.6357 117.28 37.1347 117.053C38.1029 116.614 38.4983 115.749 38.6154 115.482C39.1517 114.26 38.7364 113.123 38.5974 112.791C38.4596 112.463 38.1838 111.831 37.4961 111.401C37.0314 111.111 36.5763 111.036 36.3155 111.014C36.4144 110.828 36.6728 110.28 36.5357 109.609C36.381 108.85 35.782 108.23 34.9851 107.978C35.0697 107.594 35.1747 106.839 34.8688 106.006C34.7729 105.745 34.5541 105.172 33.9965 104.745C33.6258 104.461 33.0729 104.217 32.9419 104.363C32.8336 104.484 33.1074 104.77 33.3691 105.381C33.531 105.76 33.9894 106.832 33.6567 107.833C33.4981 108.31 33.3265 108.269 33.2199 108.729C33.0292 109.551 33.439 110.278 33.5398 110.457C34.0465 111.356 34.9083 111.679 35.1578 111.763C35.0288 111.95 34.8616 112.223 34.7157 112.575C34.2344 113.735 34.3861 114.778 34.445 115.103C34.5906 115.908 34.9274 116.504 35.1672 116.854C34.9454 116.953 34.5458 117.167 34.2101 117.595C33.6661 118.286 33.6639 119.055 33.6857 119.364Z" fill="white"/>
<path d="M32.3495 111.221C32.1652 111.48 31.9897 111.785 31.8502 112.139C31.1661 113.874 31.8242 115.56 32.0787 116.132C31.8867 116.555 31.6875 117.182 31.8259 117.883C31.8966 118.243 31.9911 118.293 32.0608 118.678C32.195 119.423 31.887 120.53 31.887 120.53C31.4443 122.015 31.9259 123.144 31.6789 123.201C31.438 123.257 30.8749 122.21 30.6533 121.15C30.3648 119.771 30.5696 118.535 30.826 117.662C30.2397 116.702 29.9625 115.846 29.8216 115.265C29.5166 114.008 29.7252 113.528 29.8758 113.297C29.988 113.124 30.0305 113.147 30.1267 112.976C30.4237 112.45 30.2178 111.877 30.0407 111.089C30.0407 111.089 29.8658 110.305 29.7854 109.505C29.7133 108.788 29.5965 107.628 30.1479 106.456C30.3057 106.121 30.5967 105.618 31.1415 105.109C31.4311 105.354 31.8378 105.773 31.9881 106.381C32.2765 107.548 31.1912 108.344 31.5366 109.613C31.7427 110.37 32.1088 110.913 32.3495 111.221Z" fill="#CEEAF0"/>
</g>
<g opacity="0.5">
<path d="M42.3473 80.9997C42.8102 81.7346 43.2308 82.4812 43.6004 83.255C43.7519 82.6711 43.7265 82.1975 43.7229 82.1454C43.7152 82.0353 43.5929 80.5829 42.4852 79.7584C41.9819 79.3837 41.4141 79.2414 41.0747 79.1138C41.395 79.7741 41.957 80.3799 42.3473 80.9997Z" fill="#F2F7F8"/>
<path d="M38.3524 92.9492C38.6157 92.6168 38.6771 92.266 38.7015 92.1169C38.8397 91.2705 38.3024 90.8344 38.5402 90.4909C38.7182 90.2338 39.0375 90.4429 39.6187 90.1849C39.6827 90.1566 40.4219 89.8151 40.719 89.0263C40.9652 88.3728 40.7751 87.7646 40.6983 87.5192C40.4082 86.5912 39.7803 86.3089 39.9217 85.9852C40.0469 85.6984 40.5639 85.8448 41.4094 85.5512C41.5834 85.4908 42.2498 85.2447 42.7798 84.7236C43.1026 84.4061 43.3162 84.0436 43.4573 83.6928C42.8347 82.3115 42.045 81.0114 41.1389 79.7929C40.1367 78.445 40.7135 76.8571 40.5642 75.2986C40.4613 74.2239 39.9048 73.3123 39.2628 72.472C38.9671 72.0849 38.6608 71.8859 38.2983 71.5774C38.2073 71.4998 38.0245 71.3676 37.9886 71.2302C37.9074 70.9197 38.1474 70.4311 38.3444 70.0467C38.0735 70.1354 37.9344 70.3018 37.8857 70.2601C37.8309 70.2131 37.9926 69.9899 38.1041 69.6777C38.2382 69.302 38.2311 68.9833 38.2302 68.785C38.2295 68.633 38.2134 68.0105 37.8443 67.3996C37.8364 67.3865 37.8246 67.3672 37.8091 67.3425C37.7317 67.2201 37.0147 66.1294 35.883 66.1343C35.2248 66.1371 34.6011 66.5098 34.2631 66.9882C33.8747 67.5379 34.1246 67.8574 33.6891 68.9503C33.4302 69.5996 33.3271 69.5245 33.1041 70.1209C32.776 70.9987 32.7743 71.7635 32.7774 72.2107C32.7813 72.772 32.7856 73.4201 33.0707 74.1818C33.3869 75.027 33.8658 75.5236 33.6701 76.1645C33.6186 76.333 33.5668 76.3408 33.4861 76.6078C33.4438 76.7479 33.3114 77.221 33.3588 77.8428C33.4374 78.8764 33.9206 79.1156 33.9884 79.8169C34.0669 80.6277 33.3921 81.0469 33.0744 81.8194C31.9543 84.5427 32.5777 88.407 34.4068 89.526C34.7616 89.7431 35.0396 89.7821 35.3115 90.1414C35.9704 91.0127 35.2709 91.9998 35.939 92.9148C36.0031 93.0025 36.404 93.5337 37.0476 93.582C37.791 93.6379 38.3056 93.0085 38.3524 92.9492Z" fill="#F2F7F8"/>
<path d="M35.3103 92.97C34.9113 92.1593 35.5265 90.6214 35.2364 90.2721C35.1552 90.1744 35.0619 90.0977 35.0619 90.0977C34.869 89.9493 34.69 89.946 34.2317 89.5325C33.4766 88.8512 33.1247 88.0651 33.1694 88.0333C33.2346 87.9867 33.6686 88.8835 34.6991 89.644C35.1416 89.9707 36.6382 91.0752 38.2387 90.5645C39.2056 90.256 39.7064 89.5186 39.7967 89.3812C40.6422 88.0923 40.0748 86.6605 40.0333 86.561C39.7932 85.9842 39.4229 85.6123 39.198 85.4187C39.5099 85.3006 40.1914 84.9936 40.7334 84.2817C41.2756 83.5695 41.3759 82.8494 41.425 82.458C41.5935 81.114 41.0484 80.0665 40.8865 79.7652C40.4246 78.9064 40.0049 78.7727 39.741 78.331C39.6755 78.2213 39.6148 78.0812 39.5699 77.9102C39.5246 77.7377 39.5144 77.5902 39.5128 77.4924C40.2262 77.104 40.5186 76.3315 40.2848 75.7666C40.0686 75.2437 39.4777 75.0826 39.3944 75.0612C39.49 74.9104 39.6341 74.6366 39.6615 74.2746C39.7019 73.745 39.4683 73.3538 39.3305 73.1231C38.7718 72.1875 37.7523 71.8476 37.4203 71.7514C37.5509 71.5296 37.6815 71.2181 37.5921 70.9109C37.4818 70.532 37.1286 70.4738 37.1044 70.1883C37.0741 69.8288 37.6142 69.6785 37.8951 69.2283C38.0983 68.9025 38.2107 68.3477 37.8087 67.3428C37.9748 67.6235 38.2234 68.1379 38.2298 68.7853C38.2319 68.9876 38.2489 69.3083 38.1037 69.678C38.0661 69.7736 38.0268 69.8504 37.9971 69.9036C38.1014 69.8752 38.2696 69.8434 38.4738 69.8665C38.5586 69.8761 38.8313 69.9102 39.079 70.1017C39.4413 70.3819 39.64 70.914 39.498 71.3063C39.3961 71.5877 39.143 71.7303 39.1856 71.7931C39.2281 71.8556 39.4528 71.6764 39.763 71.6961C40.2069 71.7241 40.4977 72.1391 40.537 72.1969C40.6094 72.3033 40.8482 72.6547 40.7198 73.0581C40.6388 73.3129 40.4521 73.4592 40.3712 73.5154C40.5424 73.5065 41.0148 73.5051 41.4789 73.8118C41.5683 73.8707 42.1876 74.2952 42.2735 75.0911C42.3387 75.6952 42.0561 76.1378 41.9755 76.26C41.7334 76.6271 41.4201 76.8139 41.2624 76.8942C41.3521 76.9363 41.5645 77.0517 41.6871 77.2941C41.8962 77.7071 41.6776 78.1169 41.6513 78.1639C41.4784 78.4733 41.1869 78.5852 41.1044 78.6135C41.4648 78.6746 42.2787 78.864 42.9945 79.5378C43.7922 80.2889 44.3153 81.4965 44.0712 82.6986C43.8508 83.7844 43.1069 84.4365 42.7791 84.7237C42.1693 85.2582 41.5706 85.4932 41.4088 85.5513C40.9854 85.7037 40.6099 85.7586 40.3417 85.779C40.5674 86.0735 40.9303 86.6362 41.051 87.425C41.102 87.7581 41.1856 88.3539 40.9148 89.0335C40.6288 89.7515 40.1162 90.1392 39.887 90.3081C39.3721 90.6872 38.8624 90.8269 38.5713 90.8837C38.6588 91.0966 38.8134 91.5602 38.7008 92.1172C38.5685 92.7719 38.0693 93.5447 37.2145 93.7209C36.4818 93.8719 35.6008 93.5604 35.3103 92.97Z" fill="white"/>
<path d="M37.8729 92.3639C38.2716 91.6668 38.0188 90.8856 37.94 90.6419C37.6967 89.8899 37.3464 89.9235 37.2634 89.3436C37.1674 88.673 37.6205 88.5215 37.5332 87.8362C37.453 87.206 37.0416 87.1654 36.9466 86.4985C36.8807 86.0355 37.0663 85.9671 37.2137 85.1353C37.2747 84.7909 37.4026 84.0325 37.2399 83.1616C37.1747 82.8128 37.0338 82.2891 36.6927 81.697C36.3777 81.5006 35.6537 81.061 35.3246 80.1755C35.0741 79.5014 35.0065 78.7203 35.0533 78.0118C35.0863 77.5119 35.3563 75.397 36.1693 75.1744C35.6355 74.5051 35.0874 73.8096 34.9005 72.9618C34.8076 72.5404 34.6207 71.6397 35.088 70.7216C35.3112 70.2831 35.6085 69.99 35.8169 69.8166C35.7005 69.5732 35.5344 69.1281 35.5921 68.5809C35.7304 67.2737 37.0155 66.6368 37.1164 66.5888C36.9166 66.4467 36.4841 66.1811 35.883 66.1348C35.7259 66.1227 34.6436 66.0581 33.9007 66.9235C33.1851 67.7571 33.3693 68.7718 33.3945 68.8978C33.1246 69.2037 32.0661 70.4749 32.0783 72.3909C32.092 74.5536 33.4594 75.9062 33.7099 76.1454C33.6001 76.2522 32.8772 76.9796 32.939 78.1114C32.9979 79.1922 33.7276 79.8238 33.851 79.9271C33.5966 80.3426 33.246 80.9819 32.9522 81.8088C32.6516 82.6549 31.5387 85.7885 33.0908 88.6415C33.3686 89.1522 33.8859 89.9371 34.8369 90.6963C34.4692 91.7673 34.8781 92.8216 35.6001 93.1604C36.1402 93.4139 36.8178 93.2495 37.2563 92.9811C37.3745 92.9082 37.6668 92.7245 37.8729 92.3639Z" fill="#CEEAF0"/>
<path d="M34.9408 89.5813C34.8573 89.5464 34.6385 89.4417 34.2066 88.9558C33.8785 88.5869 33.4809 88.1397 33.2067 87.4413C33.0667 87.0844 32.465 85.5514 33.145 84.7142C33.4683 84.316 33.9173 84.2772 33.9658 83.8799C34.0095 83.5221 33.6651 83.3376 33.7505 82.9784C33.8199 82.6865 34.1217 82.4955 34.3426 82.4266C34.9413 82.24 35.655 82.7291 35.8909 83.2934C35.9333 83.3948 36.0241 83.595 35.9902 83.8566C35.9491 84.1748 35.7545 84.3795 35.6813 84.4496C35.759 84.4536 36.2085 84.4842 36.5051 84.8556C36.9112 85.3642 36.6329 86.0139 36.6197 86.0435C36.5237 86.2576 36.3816 86.3969 36.2883 86.4742C36.4325 86.5415 36.937 86.7982 37.165 87.3701C37.4475 88.0784 37.1713 88.9325 36.5579 89.3768C36.0791 89.7234 35.4376 89.7895 34.9408 89.5813Z" fill="white"/>
<path d="M34.8193 89.5287C34.8063 89.5426 34.2733 89.1785 33.8345 88.6515C32.7616 87.3633 32.3225 85.2893 33.0528 84.5923C33.27 84.385 33.5269 84.3604 33.6607 84.0451C33.8218 83.6654 33.5876 83.3747 33.7506 82.9781C33.8579 82.7174 34.0768 82.557 34.2512 82.4604C34.1782 82.5779 34.0693 82.7913 34.0519 83.0743C34.0161 83.6591 34.4008 84.0602 34.472 84.1319C34.2004 84.4596 33.7546 85.0961 33.5873 86.0058C33.5073 86.4405 33.3579 87.6318 34.015 88.643C34.3526 89.1629 34.8319 89.5153 34.8193 89.5287Z" fill="#CEEAF0"/>
</g>
<path d="M18.6316 68.356C17.9086 68.9068 17.6489 70.0014 18.0504 71.03C17.8291 71.1489 17.5146 71.3402 17.1848 71.6297C15.2879 73.2947 14.9878 76.3648 15.673 78.6414C15.8458 79.2156 16.1782 80.0614 16.8617 80.976C16.693 81.3037 16.5124 81.7311 16.3864 82.2486C16.192 83.0472 16.2058 83.7393 16.255 84.2131C15.831 85.3044 15.6158 86.2782 15.5019 87.0527C15.3791 87.888 14.917 91.5986 16.9585 94.617C17.6511 95.6409 18.1863 95.9268 18.6381 96.0256C19.5883 96.2338 20.6833 95.7277 20.995 95.2476C21.1022 95.0824 21.3339 94.7069 21.7761 94.3025C21.8459 94.2387 21.9298 94.1784 22.0452 94.1145C23.1125 93.5229 23.955 94.6522 25.2755 94.3706C26.8312 94.0389 28.4072 91.8603 28.1103 90.2179C27.961 89.3923 27.4176 89.1445 27.527 88.3732C27.6659 87.3942 28.6096 87.3134 28.76 86.4108C28.9382 85.3422 27.8581 84.0015 26.7934 83.8075C26.2309 83.705 25.6054 83.9108 25.5876 83.828C25.5742 83.7653 25.9365 83.727 26.1985 83.4485C26.5402 83.0855 26.604 82.4268 26.3711 81.9078C26.1448 81.4034 25.6217 80.9946 25.1046 81.0107C24.4999 81.0296 24.0822 81.6238 24.0305 81.5723C23.9767 81.5189 24.5373 81.0024 24.906 80.2798C25.4309 79.2515 25.1191 78.143 25.0729 77.9868C24.6996 76.7274 23.576 75.9851 23.4468 75.9022C23.0282 75.6334 22.7947 75.6057 22.6889 75.3293C22.5109 74.8641 23.0178 74.5363 23.2554 73.5092C23.3554 73.0772 23.4683 72.5898 23.263 72.0589C22.9705 71.3022 22.2563 70.9797 22.1945 70.953C21.6333 70.7096 21.3277 70.9133 21.1542 70.6674C20.9227 70.3387 21.436 69.9148 21.2961 69.1012C21.2687 68.942 21.2141 68.5708 20.9534 68.303C20.4379 67.7735 19.3118 67.8378 18.6316 68.356Z" fill="#E9F4F6"/>
<path d="M20.2848 72.3189C20.5643 72.8417 21.0469 73.7445 21.2044 74.823C21.4679 76.6273 20.5554 77.1017 20.8933 78.5811C21.183 79.849 21.9508 79.9267 22.4247 81.1298C22.7747 82.0185 22.9248 83.4201 21.8993 85.6067C22.1758 85.8741 22.6246 86.3861 22.8515 87.1509C23.2411 88.4642 22.8645 90.1468 21.8402 90.8224C20.7807 91.5213 19.6828 90.7111 18.888 91.5519C18.3898 92.0789 18.3759 92.8683 18.3733 93.0189C18.3539 94.1215 19.119 94.7476 18.888 95.0522C18.6935 95.3086 17.9137 95.1776 17.3226 94.8421C15.1297 93.597 15.1618 89.3224 15.5015 87.0523C15.6885 85.8032 16.0199 84.8189 16.2547 84.2126C16.2055 83.739 16.1916 83.0468 16.386 82.2482C16.5121 81.7306 16.6926 81.3033 16.8613 80.9756C16.1779 80.0609 15.8455 79.2152 15.6727 78.641C14.9875 76.3643 15.2875 73.2943 17.1845 71.6292C17.5143 71.3397 17.8289 71.1485 18.05 71.0296C17.9253 70.7002 17.7998 70.1986 17.8998 69.6175C17.9472 69.3419 18.0926 68.4981 18.6312 68.3556C18.9162 68.2802 19.2916 68.4061 19.4026 68.6461C19.5286 68.9183 19.2384 69.173 19.1194 69.5468C18.8633 70.3526 19.6098 71.0561 20.2848 72.3189Z" fill="#CEEAF0"/>
<path d="M20.8459 67.8696C20.9441 67.9414 21.3266 68.2365 21.4934 68.7737C21.6426 69.254 21.5369 69.6616 21.4627 69.9475C21.3813 70.2615 21.2586 70.503 21.1659 70.659C21.4358 70.6224 22.224 70.5531 22.8771 71.0501C23.9998 71.9046 23.633 73.6037 23.5944 73.7701C23.4102 74.5645 22.9462 75.0859 22.7022 75.3241C22.9419 75.3866 24.4465 75.8051 25.176 77.2852C25.3513 77.6409 25.7454 78.5927 25.456 79.7196C25.3271 80.2217 25.1044 80.5954 24.942 80.8254C25.7313 80.8073 26.4265 81.2775 26.6571 81.9598C26.927 82.7584 26.4265 83.4508 26.3792 83.514C26.4628 83.5092 28.2677 83.4367 29.2528 84.9151C30.0848 86.1637 29.6616 87.5124 29.6186 87.6419C29.302 88.5933 28.6153 89.1038 28.3756 89.2662C28.45 89.4558 29.2047 91.4785 27.9808 93.3146C27.0242 94.7495 25.2903 95.4228 23.7795 95.1888C23.0981 95.0832 22.5798 94.8108 22.266 94.612C22.1585 94.8503 21.9658 95.204 21.6303 95.5516C21.4609 95.7271 21.0612 96.1336 20.4065 96.3506C20.1431 96.4379 19.3199 96.713 18.4797 96.3028C17.6507 95.898 17.2614 95.0494 17.3155 95.0001C17.3398 94.9781 17.4591 95.1147 17.6885 95.266C17.8139 95.3488 18.424 95.7336 19.2223 95.693C20.1939 95.6433 20.8158 94.9956 20.9755 94.8164C21.4454 94.2894 21.5766 93.7137 21.6188 93.4589C21.9918 93.5334 23.1392 93.7118 24.3519 93.0958C24.5091 93.0158 26.0069 92.2245 26.4721 90.5026C26.6738 89.7561 26.6083 89.1051 26.552 88.7705C26.3706 87.692 25.7875 87.3112 25.4556 86.0181C25.321 85.4937 25.2843 85.0498 25.2733 84.7723C24.9737 84.608 24.5497 84.3367 24.1245 83.9078C23.8503 83.6313 23.6508 83.4328 23.5402 83.1287C23.255 82.3444 23.6723 81.6399 23.735 81.5379C23.9407 81.2322 24.4759 80.3498 24.4345 79.1192C24.416 78.5631 24.2663 77.5365 23.4752 76.6355C22.7903 75.8554 21.9748 75.5681 21.6246 75.4667C21.7742 75.3238 22.6394 74.4699 22.5663 73.2225C22.5516 72.9714 22.5026 72.306 21.9825 71.7336C21.3041 70.9871 20.3564 70.9843 20.1962 70.9865C20.3498 70.8639 20.6819 70.563 20.8149 70.0698C20.9771 69.4675 20.8169 68.6328 20.1726 68.2306C19.7162 67.9458 18.9955 67.9936 18.6427 68.3643C18.6133 68.3951 18.5864 68.4289 18.5615 68.4658C18.576 68.4267 18.5965 68.3873 18.6195 68.3478C18.7189 68.1764 19.0052 67.6825 19.5793 67.5452C20.1987 67.3968 20.7086 67.7693 20.8459 67.8696Z" fill="white"/>
<path d="M17.5952 88.365C17.6295 87.3424 18.33 86.3921 19.3868 85.9137C18.7149 85.0578 18.6648 84.4511 18.7359 84.0613C18.9143 83.0823 19.9405 83.0074 20.367 81.7294C20.6892 80.7644 20.4883 79.8057 20.4883 79.8057C20.3377 79.0871 19.998 78.65 20.205 78.1632C20.3369 77.8532 20.6242 77.6788 20.8305 77.5832C20.8564 77.784 20.9129 77.9304 20.9554 78.0212C21.1506 78.4383 21.5182 78.7371 21.8255 78.9291C22.1759 79.2999 22.7114 79.9748 23.0012 80.9594C23.4784 82.5813 22.9663 83.9484 22.7844 84.3752C22.5725 84.8727 22.3169 85.2481 22.1239 85.4966C22.2914 85.492 22.5267 85.497 22.8031 85.5406C22.9732 85.5675 23.8287 85.7029 24.4403 86.2214C25.2625 86.918 25.5456 88.2226 25.2087 89.2907C24.8291 90.4936 23.7923 91.0226 23.4516 91.1963C22.1111 91.8803 20.4449 91.7392 19.2319 90.9154C18.7846 90.6117 17.548 89.7717 17.5952 88.365Z" fill="#E9F4F6"/>
<path d="M18.1201 89.9317C18.1247 89.9273 18.1291 89.9229 18.1335 89.9185C18.8376 90.6899 19.9622 91.2714 20.6643 91.0436C20.7653 91.0109 21.0889 90.9059 21.2234 90.6238C21.3638 90.3292 21.1613 90.1279 21.1603 89.8028C21.1576 88.9842 22.4365 88.8222 22.6443 87.8136C22.7541 87.2806 22.4993 86.8289 22.4356 86.716C22.0435 86.021 21.2955 85.8501 21.1587 85.8212C21.4194 85.5432 21.7998 85.0689 22.066 84.39C22.5037 83.2731 22.3688 82.2599 22.2661 81.7561C22.0775 80.8321 21.6009 80.0685 21.3759 79.7425C20.8766 79.0194 20.347 78.6011 20.4645 78.0891C20.5186 77.8528 20.6903 77.6874 20.8306 77.5829C20.8565 77.7836 20.913 77.9301 20.9555 78.0209C21.1507 78.438 21.5183 78.7367 21.8256 78.9288C22.836 79.5768 23.2029 81.0583 23.2435 81.2219C23.5243 82.356 23.1719 83.3459 22.9641 83.9299C22.7155 84.6283 22.3799 85.1531 22.124 85.4963C22.2915 85.4917 22.5268 85.4967 22.8032 85.5403C22.9733 85.5672 23.8282 85.7034 24.4405 86.2211C25.2348 86.8927 25.5579 88.1834 25.2088 89.2903C24.8292 90.4933 23.7924 91.0223 23.4517 91.196C21.4142 92.2355 19.3202 90.9695 19.232 90.9151C18.9686 90.7529 18.5393 90.44 18.1201 89.9317Z" fill="white"/>
<path d="M18.2242 76.704C18.2956 76.7091 18.5333 76.7171 18.7412 76.5556C18.9978 76.3563 19.0176 76.0475 19.0246 75.9384C19.0471 75.5873 18.868 75.3343 18.8111 75.26C18.9043 75.2631 19.3076 75.2666 19.6509 74.9641C19.9613 74.6906 20.0228 74.3427 20.0433 74.2158C20.0573 74.129 20.1527 73.4762 19.7266 73.1215C19.4839 72.9194 19.1641 72.8909 19.0941 72.8847C18.9701 72.8737 18.8659 72.8834 18.7932 72.8946C18.8311 72.8699 19.1345 72.6646 19.1637 72.2846C19.1919 71.9197 18.9448 71.681 18.8854 71.6235C18.5319 71.2819 18.0394 71.3703 17.9865 71.3807C18.0638 71.126 17.9849 70.8516 17.7883 70.6869C17.5659 70.5007 17.2336 70.4893 16.9859 70.6656C16.9418 70.7159 16.8783 70.7923 16.8089 70.8902C16.7709 70.9436 16.382 71.5041 16.2931 72.2105C16.1615 73.2565 16.8221 73.558 16.6124 74.6445C16.5574 74.929 16.5233 74.8511 16.4528 75.1832C16.4083 75.3933 16.1424 76.6467 16.8459 77.4902C16.994 77.6679 17.2831 78.0065 17.6802 77.9722C17.9656 77.9475 18.2715 77.7328 18.3637 77.3998C18.464 77.0362 18.2518 76.7411 18.2242 76.704Z" fill="white"/>
<path d="M17.6327 74.6163C17.4963 75.1836 17.1556 75.5562 16.9681 75.7318C17.0177 75.759 17.49 76.0272 17.5284 76.53C17.5531 76.8537 17.3978 77.2734 17.1373 77.3232C16.871 77.374 16.6057 77.0174 16.5493 76.9417C16.1448 76.3982 16.3718 75.913 16.3058 74.5775C16.2664 73.7813 16.1675 73.5872 16.2356 72.9379C16.3338 71.9996 16.6062 71.7749 16.763 71.6935C16.7912 71.6788 16.9686 71.5899 17.1849 71.6295C17.5927 71.7043 17.7554 72.1657 17.7721 72.2154C17.7929 72.2774 17.9431 72.7251 17.671 73.0077C17.5388 73.1452 17.3676 73.1801 17.2855 73.1908C17.3793 73.2755 17.5136 73.4194 17.6056 73.6315C17.7753 74.0237 17.6875 74.3884 17.6327 74.6163Z" fill="#E9F4F6"/>
<g filter="url(#filter1_f_55_3843)">
<circle cx="30.0405" cy="45.9593" r="14.3675" transform="rotate(90 30.0405 45.9593)" fill="url(#paint2_linear_55_3843)"/>
</g>
<circle cx="30.0405" cy="45.9593" r="14.3675" transform="rotate(90 30.0405 45.9593)" fill="url(#paint3_linear_55_3843)"/>
<circle cx="12.2192" cy="129.263" r="0.414447" transform="rotate(90 12.2192 129.263)" fill="#C7C7C7"/>
</g>
<defs>
<filter id="filter0_i_55_3843" x="11.5285" y="28" width="36.4713" height="104.717" filterUnits="userSpaceOnUse" color-interpolation-filters="sRGB">
<feFlood flood-opacity="0" result="BackgroundImageFix"/>
<feBlend mode="normal" in="SourceGraphic" in2="BackgroundImageFix" result="shape"/>
<feColorMatrix in="SourceAlpha" type="matrix" values="0 0 0 0 0 0 0 0 0 0 0 0 0 0 0 0 0 0 127 0" result="hardAlpha"/>
<feOffset dx="-0.552596" dy="1.10519"/>
<feGaussianBlur stdDeviation="1.93408"/>
<feComposite in2="hardAlpha" operator="arithmetic" k2="-1" k3="1"/>
<feColorMatrix type="matrix" values="0 0 0 0 0 0 0 0 0 0 0 0 0 0 0 0 0 0 0.3 0"/>
<feBlend mode="normal" in2="shape" result="effect1_innerShadow_55_3843"/>
</filter>
<filter id="filter1_f_55_3843" x="11.8048" y="27.7236" width="36.4713" height="36.4712" filterUnits="userSpaceOnUse" color-interpolation-filters="sRGB">
<feFlood flood-opacity="0" result="BackgroundImageFix"/>
<feBlend mode="normal" in="SourceGraphic" in2="BackgroundImageFix" result="shape"/>
<feGaussianBlur stdDeviation="1.93408" result="effect1_foregroundBlur_55_3843"/>
</filter>
<linearGradient id="paint0_linear_55_3843" x1="-8.28452" y1="-193.208" x2="79.5153" y2="-189.729" gradientUnits="userSpaceOnUse">
<stop stop-color="#7B2FFF"/>
<stop offset="1" stop-color="#FB19FF"/>
</linearGradient>
<linearGradient id="paint1_linear_55_3843" x1="63.3736" y1="71.2406" x2="153.576" y2="32.5836" gradientUnits="userSpaceOnUse">
<stop stop-color="#77C2D0"/>
<stop offset="1" stop-color="#3D91A7"/>
</linearGradient>
<linearGradient id="paint2_linear_55_3843" x1="22.1005" y1="34.6165" x2="40.249" y2="60.3268" gradientUnits="userSpaceOnUse">
<stop stop-color="#FFF500"/>
<stop offset="1" stop-color="#FFC700"/>
</linearGradient>
<linearGradient id="paint3_linear_55_3843" x1="22.1005" y1="34.6165" x2="40.249" y2="60.3268" gradientUnits="userSpaceOnUse">
<stop stop-color="#FFF500"/>
<stop offset="1" stop-color="#FFC700"/>
</linearGradient>
<clipPath id="clip0_55_3843">
<rect x="47.9998" y="28" width="103.612" height="35.9187" rx="17.9594" transform="rotate(90 47.9998 28)" fill="white"/>
</clipPath>
</defs>
</svg>
